<svg width="80" height="106" viewBox="0 0 80 106" fill="none" xmlns="http://www.w3.org/2000/svg">
<path d="M58.863 1.58762H23.0638C21.1478 1.58762 19.5946 2.97644 19.5946 4.68965C19.5946 6.40287 21.1478 7.79171 23.0638 7.79171H58.863C60.779 7.79171 62.3322 6.40287 62.3322 4.68965C62.3322 2.97644 60.779 1.58762 58.863 1.58762Z" fill="#636363" stroke="#636363" stroke-width="2.15918" stroke-linejoin="bevel"/>
<path d="M40.2567 104.855C40.2567 104.855 14.2823 98.7048 4.5711 90.8876C0.648498 87.7301 2.39603 74.6191 2.39603 74.6191L39.5532 58.2371L40.2567 104.855Z" fill="#FF0000" stroke="#636363" stroke-width="2.15918" stroke-linejoin="bevel"/>
<path d="M40.5778 104.851C40.5778 104.851 66.5307 98.8465 76.2688 91.0968C80.2023 87.9664 78.542 74.877 78.542 74.877L41.5752 58.3448L40.5778 104.851Z" fill="#FF0000" stroke="#636363" stroke-width="2.15419" stroke-linejoin="bevel"/>
<path d="M40.3521 16.9158C42.8903 16.9158 44.948 15.0767 44.948 12.808C44.948 10.5393 42.8903 8.7002 40.3521 8.7002C37.814 8.7002 35.7563 10.5393 35.7563 12.808C35.7563 15.0767 37.814 16.9158 40.3521 16.9158Z" stroke="#636363" stroke-width="1.00311" stroke-linejoin="bevel"/>
<path d="M7.67407 72.0911L26.1691 7.58813" stroke="#636363" stroke-width="2.15918" stroke-linejoin="bevel"/>
<path d="M73.2079 72.4556L54.95 7.73965" stroke="#636363" stroke-width="2.15918" stroke-linejoin="bevel"/>
<path d="M40.3116 8.31442C37.6937 8.31442 35.5848 10.1977 35.5848 12.5376V48.833C35.5848 49.0092 35.6007 49.1815 35.6239 49.3518H44.9972C45.0203 49.1814 45.0363 49.0091 45.0363 48.833V12.5376C45.0363 10.1977 42.9294 8.31442 40.3116 8.31442Z" stroke="#636363" stroke-width="1.0907" stroke-linejoin="bevel"/>
<path d="M31.3761 49.3866V57.7729H49.2451V49.3866H31.3761Z" fill="#636363" stroke="#636363" stroke-width="1.25" stroke-linecap="round"/>
</svg>
