<svg width="119" height="99" viewBox="0 0 119 99" fill="none" xmlns="http://www.w3.org/2000/svg">
<path d="M77.7385 1.6012H41.9393C40.0233 1.6012 38.4701 2.99002 38.4701 4.70323C38.4701 6.41645 40.0233 7.80529 41.9393 7.80529H77.7385C79.6545 7.80529 81.2077 6.41645 81.2077 4.70323C81.2077 2.99002 79.6545 1.6012 77.7385 1.6012Z" fill="#636363" stroke="#636363" stroke-width="2.15918" stroke-linejoin="bevel"/>
<path d="M1.86151 97.3862C1.86151 97.3862 1.0654 73.3642 6.60027 62.8104C8.83595 58.5474 23.1859 56.3089 23.1859 56.3089L50.9414 83.4968L1.86151 97.3862Z" fill="#FF0000" stroke="#636363" stroke-width="2.14438" stroke-linejoin="bevel"/>
<path d="M117.156 97.3802C117.156 97.3802 117.963 73.3652 112.35 62.8145C110.082 58.5528 95.5293 56.315 95.5293 56.315L67.3809 83.4948L117.156 97.3802Z" fill="#FF0000" stroke="#636363" stroke-width="2.15918" stroke-linejoin="bevel"/>
<path d="M58.7855 16.9372C61.2797 16.9372 63.3016 15.13 63.3016 12.9007C63.3016 10.6714 61.2797 8.86417 58.7855 8.86417C56.2913 8.86417 54.2694 10.6714 54.2694 12.9007C54.2694 15.13 56.2913 16.9372 58.7855 16.9372Z" stroke="#636363" stroke-width="0.985705" stroke-linejoin="bevel"/>
<path d="M25.626 58.3652L45.0445 7.60178" stroke="#636363" stroke-width="2.15918" stroke-linejoin="bevel"/>
<path d="M93.2439 58.5167L73.8254 7.75327" stroke="#636363" stroke-width="2.15918" stroke-linejoin="bevel"/>
<path d="M58.8423 8.90451C57.5917 8.90451 54.2224 9.45678 54.2251 13.4327L54.2693 77.7508C54.2695 78.0501 54.2848 78.3429 54.3071 78.6322H63.3756C63.3979 78.3425 63.4134 78.0499 63.4134 77.7508L63.4115 13.4327C63.4114 10.4847 61.1982 8.90451 59.7708 8.90451H58.8423Z" stroke="#636363" stroke-width="1.097" stroke-linejoin="bevel"/>
<path d="M51.2368 78.6379V87.1058H66.4458V78.6379H51.2368Z" fill="#636363" stroke="#636363" stroke-width="1.15881" stroke-linecap="round"/>
</svg>
