<svg width="42" height="47" viewBox="0 0 42 47" fill="none" xmlns="http://www.w3.org/2000/svg">
<path d="M34.8198 0.767975H25.8547V10.9335H34.8198V0.767975Z" fill="#434343" stroke="black" stroke-width="0.491871"/>
<path d="M40.7786 10.9392H25.8538V17.7625H40.7786V10.9392Z" fill="#434343" stroke="black" stroke-width="0.491871"/>
<path d="M40.815 30.5969H37.9232V35.8275H40.815V30.5969Z" fill="#434343" stroke="black" stroke-width="0.491871"/>
<path d="M39.8217 46.2924H38.9164V46.9188H39.8217V46.2924Z" fill="#434343" stroke="black" stroke-width="0.491871"/>
<path d="M40.4604 42.8031H38.2777V43.7764H40.4604V42.8031Z" fill="#434343" stroke="black" stroke-width="0.491871"/>
<path d="M40.4573 39.3808H38.2808V40.5963H40.4573V39.3808Z" fill="#434343" stroke="black" stroke-width="0.491871"/>
<path d="M41.0594 35.8364H37.6787V37.279H41.0594V35.8364Z" fill="#434343" stroke="black" stroke-width="0.491871"/>
<path d="M40.8658 43.7998H37.8723V46.2981H40.8658V43.7998Z" fill="#434343" stroke="black" stroke-width="0.491871"/>
<path d="M40.8669 40.6197H37.8712V42.7943H40.8669V40.6197Z" fill="#434343" stroke="black" stroke-width="0.491871"/>
<path d="M40.8363 37.2878H37.9018V39.4011H40.8363V37.2878Z" fill="#434343" stroke="black" stroke-width="0.491871"/>
<path d="M36.0909 17.7558H40.7852L40.829 30.6153H37.5826L36.0909 17.7558Z" fill="#434343" stroke="black" stroke-width="0.491871"/>
<path d="M6.97943 0.763626H15.9445V10.9291H6.97943V0.763626Z" fill="#434343" stroke="black" stroke-width="0.491871"/>
<path d="M1.02055 10.9349H15.9454V17.7582H1.02055V10.9349Z" fill="#434343" stroke="black" stroke-width="0.491871"/>
<path d="M0.984247 30.5926H3.87605V35.8232H0.984247V30.5926Z" fill="#434343" stroke="black" stroke-width="0.491871"/>
<path d="M1.97746 46.2881H2.88284V46.9145H1.97746V46.2881Z" fill="#434343" stroke="black" stroke-width="0.491871"/>
<path d="M1.33879 42.7988H3.52146V43.7721H1.33879V42.7988Z" fill="#434343" stroke="black" stroke-width="0.491871"/>
<path d="M1.34187 39.3765H3.51842V40.5919H1.34187V39.3765Z" fill="#434343" stroke="black" stroke-width="0.491871"/>
<path d="M0.739771 35.8321H4.12051V37.2746H0.739771V35.8321Z" fill="#434343" stroke="black" stroke-width="0.491871"/>
<path d="M0.933386 43.7955H3.9269V46.2938H0.933386V43.7955Z" fill="#434343" stroke="black" stroke-width="0.491871"/>
<path d="M0.932278 40.6153H3.92799V42.7899H0.932278V40.6153Z" fill="#434343" stroke="black" stroke-width="0.491871"/>
<path d="M0.962928 37.2835H3.89735V39.3968H0.962928V37.2835Z" fill="#434343" stroke="black" stroke-width="0.491871"/>
<path d="M5.70827 17.7514H1.01398L0.97016 30.6109H4.21656L5.70827 17.7514Z" fill="#434343" stroke="black" stroke-width="0.491871"/>
<path d="M25.8287 10.9102H15.991V17.7444H25.8287V10.9102Z" fill="#434343" stroke="black" stroke-width="0.491871"/>
</svg>
