<?xml version="1.0" encoding="UTF-8" standalone="no"?>
<!-- Created with Inkscape (http://www.inkscape.org/) -->

<svg
   version="1.1"
   id="svg1"
   width="501.51407"
   height="583.71698"
   viewBox="0 0 501.51407 583.71698"
   sodipodi:docname="bulker_edit.svg"
   xml:space="preserve"
   inkscape:version="1.3.2 (091e20e, 2023-11-25, custom)"
   xmlns:inkscape="http://www.inkscape.org/namespaces/inkscape"
   xmlns:sodipodi="http://sodipodi.sourceforge.net/DTD/sodipodi-0.dtd"
   xmlns="http://www.w3.org/2000/svg"
   xmlns:svg="http://www.w3.org/2000/svg"><defs
     id="defs1" /><sodipodi:namedview
     id="namedview1"
     pagecolor="#ffffff"
     bordercolor="#000000"
     borderopacity="0.25"
     inkscape:showpageshadow="2"
     inkscape:pageopacity="0.0"
     inkscape:pagecheckerboard="0"
     inkscape:deskcolor="#d1d1d1"
     showgrid="false"
     inkscape:zoom="1.2667276"
     inkscape:cx="394.71785"
     inkscape:cy="389.58652"
     inkscape:window-width="1920"
     inkscape:window-height="1017"
     inkscape:window-x="-8"
     inkscape:window-y="-8"
     inkscape:window-maximized="1"
     inkscape:current-layer="g1"><inkscape:grid
       id="grid16"
       units="px"
       originx="-548.61524"
       originy="-364.55106"
       spacingx="1"
       spacingy="1"
       empcolor="#0099e5"
       empopacity="0.30196078"
       color="#0099e5"
       opacity="0.14901961"
       empspacing="5"
       dotted="false"
       gridanglex="30"
       gridanglez="30"
       visible="false" /></sodipodi:namedview><g
     inkscape:groupmode="layer"
     inkscape:label="Image"
     id="g1"
     transform="translate(-548.61523,-364.55105)"><path
       style="fill:#afafaf;fill-opacity:1;stroke:#eff0f3;stroke-width:0.823;stroke-linecap:round;stroke-linejoin:round;paint-order:stroke fill markers"
       d="m 1010.8614,864.71201 c 15.6512,-16.18343 6.736,-201.1131 -0.2708,-206.34366 -29.69467,-22.16687 -92.70828,-29.3419 -92.70828,-29.3419 l -257.50147,-0.39471 c 0,0 -79.90714,11.79686 -98.63992,32.89435 -18.73278,21.09749 4.25251,206.7376 6.11735,203.96398 1.86484,-2.77362 427.35197,15.40537 443.00312,-0.77806 z"
       id="path1"
       sodipodi:nodetypes="zscczzz" /><path
       style="fill:#afafaf;fill-opacity:1;stroke:none;stroke-width:2.60214;stroke-linecap:round;stroke-linejoin:round;paint-order:stroke fill markers"
       d="m 982.19016,401.11674 h -45.26148 l -17.46884,21.76403 v 261.17996 c 0,0 -262.0366,3.4824 -260.44839,0 1.58805,-3.4824 0,-265.5325 0,-265.5325 L 639.9539,401.11674 h -43.67277 l -0.46633,-36.56569 h 386.37536 z"
       id="path16"
       sodipodi:nodetypes="ccccscccccc" /><g
       id="g21"
       transform="matrix(1.1658179,0,0,1.2782074,-2544.1379,433.32843)"><rect
         style="fill:#fffef8;fill-opacity:1;stroke:none;stroke-width:2.13165;stroke-linecap:round;stroke-linejoin:round;paint-order:stroke fill markers"
         id="rect16"
         width="17.027756"
         height="24.519968"
         x="2787.7839"
         y="-49.380489" /><rect
         style="fill:#fffef8;fill-opacity:1;stroke:none;stroke-width:2.13165;stroke-linecap:round;stroke-linejoin:round;paint-order:stroke fill markers"
         id="rect17"
         width="17.027756"
         height="24.519968"
         x="2753.0476"
         y="-11.578876" /><rect
         style="fill:#fffef8;fill-opacity:1;stroke:none;stroke-width:2.13165;stroke-linecap:round;stroke-linejoin:round;paint-order:stroke fill markers"
         id="rect18"
         width="17.027756"
         height="24.519968"
         x="2947.1641"
         y="-11.578876" /><rect
         style="fill:#fffef8;fill-opacity:1;stroke:none;stroke-width:2.13165;stroke-linecap:round;stroke-linejoin:round;paint-order:stroke fill markers"
         id="rect19"
         width="17.027756"
         height="24.519968"
         x="2909.022"
         y="-49.380489" /><rect
         style="fill:#fffef8;fill-opacity:1;stroke:none;stroke-width:2.13165;stroke-linecap:round;stroke-linejoin:round;paint-order:stroke fill markers"
         id="rect20"
         width="17.027756"
         height="24.519968"
         x="2817.7532"
         y="-11.578876" /><rect
         style="fill:#fffef8;fill-opacity:1;stroke:none;stroke-width:2.13165;stroke-linecap:round;stroke-linejoin:round;paint-order:stroke fill markers"
         id="rect21"
         width="17.027756"
         height="24.519968"
         x="2882.4585"
         y="-11.578876" /></g><g
       id="g27"
       transform="matrix(1.1658179,0,0,1.2782074,-2543.3439,556.95366)"><rect
         style="fill:#fffef8;fill-opacity:1;stroke:none;stroke-width:2.13165;stroke-linecap:round;stroke-linejoin:round;paint-order:stroke fill markers"
         id="rect22"
         width="17.027756"
         height="24.519968"
         x="2787.7839"
         y="-49.380489" /><rect
         style="fill:#fffef8;fill-opacity:1;stroke:none;stroke-width:2.13165;stroke-linecap:round;stroke-linejoin:round;paint-order:stroke fill markers"
         id="rect23"
         width="17.027756"
         height="24.519968"
         x="2753.0476"
         y="-11.578876" /><rect
         style="fill:#fffef8;fill-opacity:1;stroke:none;stroke-width:2.13165;stroke-linecap:round;stroke-linejoin:round;paint-order:stroke fill markers"
         id="rect24"
         width="17.027756"
         height="24.519968"
         x="2947.1641"
         y="-11.578876" /><rect
         style="fill:#fffef8;fill-opacity:1;stroke:none;stroke-width:2.13165;stroke-linecap:round;stroke-linejoin:round;paint-order:stroke fill markers"
         id="rect25"
         width="17.027756"
         height="24.519968"
         x="2909.022"
         y="-49.380489" /><rect
         style="fill:#fffef8;fill-opacity:1;stroke:none;stroke-width:2.13165;stroke-linecap:round;stroke-linejoin:round;paint-order:stroke fill markers"
         id="rect26"
         width="17.027756"
         height="24.519968"
         x="2817.7532"
         y="-11.578876" /><rect
         style="fill:#fffef8;fill-opacity:1;stroke:none;stroke-width:2.13165;stroke-linecap:round;stroke-linejoin:round;paint-order:stroke fill markers"
         id="rect27"
         width="17.027756"
         height="24.519968"
         x="2882.4585"
         y="-11.578876" /></g><rect
       style="fill:#7ab2fd;fill-opacity:1;stroke-width:1.47599"
       id="rect1"
       width="501.01926"
       height="58.354549"
       x="549.11005"
       y="861.2605"
       ry="0" /><rect
       style="fill:#bfd8ff;fill-opacity:1;stroke-width:1.17556"
       id="rect2"
       width="501.01926"
       height="37.016903"
       x="548.61523"
       y="911.2511" /><path
       style="fill:#2a2a2a;fill-opacity:1;stroke:none;stroke-width:3.05157;stroke-linecap:round;stroke-linejoin:miter;stroke-dasharray:none;stroke-opacity:1;paint-order:stroke fill markers"
       d="m 689.8694,777.6861 c 49.84317,-44.71605 65.75512,-65.21412 132.12182,16.61059 27.38455,39.37105 98.64697,-130.08 187.97818,-3.11448 v 43.6028 l -34.37311,30.1067 H 593.19489 L 564.19254,829.5942 c 8.66459,-24.62676 -22.6516,-143.80137 27.9282,-74.74766 20.31258,27.66982 31.93494,61.52396 97.74866,22.83956 z"
       id="path29"
       sodipodi:nodetypes="ccccccccc" /><path
       id="rect6"
       style="fill:#4d4d4d;fill-opacity:1;stroke:#000000;stroke-width:3.471;stroke-linecap:round;stroke-linejoin:round;stroke-dasharray:none;stroke-opacity:1;paint-order:stroke fill markers"
       d="m 1009.7756,658.07606 v 169 l -26.00003,32.428 h -392 l -26,-32.428 V 658.34173 c -15.72304,0.26165 -14,6.39035 -14,32.03516 v 161.95508 c 0,26.69358 -2.96635,32.21909 33.23764,32.21909 h 416.32959 c 30.943,0 23.4328,-10.71804 23.4328,-47.61309 V 678.14064 c 0,-15.75667 -0.3262,-16.6136 -15,-20.06458 z"
       sodipodi:nodetypes="ccccccssssssc" /></g></svg>
