<svg width="79" height="77" viewBox="0 0 79 77" fill="none" xmlns="http://www.w3.org/2000/svg">
<path d="M19.6333 25.3608H13.3481V58.1396H19.6333V25.3608Z" stroke="#636363" stroke-width="1.27288" stroke-linecap="round" stroke-linejoin="bevel"/>
<path d="M13.3406 37.1123H1.24707V46.3238H13.3406V37.1123Z" stroke="#636363" stroke-width="1.27288" stroke-linecap="round" stroke-linejoin="bevel"/>
<path d="M69.9533 17.3366C69.9196 17.3366 69.8874 17.3407 69.8537 17.3415H20.0947V64.1694H69.8538C69.8875 64.1701 69.9197 64.1744 69.9534 64.1744H73.5433C76.2191 64.1744 78.3713 62.0197 78.3713 59.3439V22.1669C78.3713 19.4912 76.2191 17.3364 73.5433 17.3364L69.9533 17.3366Z" stroke="#636363" stroke-width="1.27087" stroke-linecap="round" stroke-linejoin="bevel"/>
<path d="M70.4866 17.3503H27.7559V64.1612H70.4866V17.3503Z" stroke="#636363" stroke-width="1.29795" stroke-linecap="round" stroke-linejoin="bevel"/>
<path d="M25.1362 75.7844V73.354H73.2769V75.7844H25.1362Z" stroke="#636363" stroke-width="1.27288" stroke-linecap="round" stroke-linejoin="bevel"/>
<path d="M62.5334 64.376H65.2749V73.0807H62.5334V64.376Z" fill="#636363"/>
<path d="M32.3205 64.3533H35.062V73.058H32.3205V64.3533Z" fill="#636363"/>
<path d="M55.2936 1.14258H31.1865V17.2378H55.2936V1.14258Z" stroke="#636363" stroke-width="1.21336" stroke-linecap="round" stroke-linejoin="bevel"/>
<path d="M37.9577 13.6771C40.371 13.6771 42.3275 11.7206 42.3275 9.30728C42.3275 6.89392 40.371 4.9375 37.9577 4.9375C35.5443 4.9375 33.5879 6.89392 33.5879 9.30728C33.5879 11.7206 35.5443 13.6771 37.9577 13.6771Z" stroke="#636363" stroke-width="1.27288" stroke-linecap="round" stroke-linejoin="bevel"/>
<path d="M48.258 13.6756C50.6713 13.6756 52.6278 11.7192 52.6278 9.30582C52.6278 6.89245 50.6713 4.93604 48.258 4.93604C45.8446 4.93604 43.8882 6.89245 43.8882 9.30582C43.8882 11.7192 45.8446 13.6756 48.258 13.6756Z" stroke="#636363" stroke-width="1.27288" stroke-linecap="round" stroke-linejoin="bevel"/>
<path d="M64.1904 23.4945V25.5295H33.0432V23.4945H64.1904Z" fill="#636363"/>
<path d="M64.1904 28.1837V30.2188H33.0432V28.1837H64.1904Z" fill="#636363"/>
<path d="M64.1904 32.8732V34.9082H33.0432V32.8732H64.1904Z" fill="#636363"/>
<path d="M64.1904 47.6396V49.6746H33.0432V47.6396H64.1904Z" fill="#636363"/>
<path d="M64.1904 52.329V54.364H33.0432V52.329H64.1904Z" fill="#636363"/>
<path d="M64.1904 57.0182V59.0532H33.0432V57.0182H64.1904Z" fill="#636363"/>
</svg>
