<svg width="416" height="328" viewBox="0 0 416 328" fill="none" xmlns="http://www.w3.org/2000/svg">
<path fill-rule="evenodd" clip-rule="evenodd" d="M2.0381 327.602L0 312.626L10.1385 303.551C15.6686 298.588 24.9563 290.151 30.699 284.904C40.6957 275.758 41.0502 275.333 39.4904 274.482L44.8787 253L48.4945 255.198C50.4797 256.474 53.3156 258.388 54.7336 259.523L57.3568 261.579L68.9842 269.448C69.0551 269.732 72.6709 272.497 76.9957 275.546L84.8654 281.218L92.2388 286.656L92.2389 286.677L92.652 286.96L96.9891 289.938L101.739 293.27L109.538 301.331C102.899 307.379 98.701 311.375 96.8473 313.405L82.9512 307.946C82.9512 307.521 43.5317 307.734 31.0535 308.23C22.6166 308.584 21.1986 308.868 19.7098 310.144C18.7881 310.924 14.4633 314.682 10.1385 318.51C3.33224 324.395 2.0381 325.83 2.0381 327.602ZM64.3758 291.994C71.0403 296.461 76.4994 300.36 76.5703 300.644C76.5703 300.998 66.0065 301.211 53.032 301.211H29.5647L35.0947 296.744C38.1434 294.334 43.0354 290.364 46.0131 287.882C48.9199 285.472 51.5432 283.557 51.8268 283.628L52.0843 283.799C53.2855 284.596 58.4365 288.014 64.3758 291.994Z" fill="#003478"/>
<path fill-rule="evenodd" clip-rule="evenodd" d="M372.257 6.46059C381.776 4.0938 389.011 2.25378 392.232 1.37254C396.694 0.0800864 403.223 1.75784 407.348 5.21684C415.17 11.711 415.922 23.4066 409.002 31.2307L406.178 34.5024L399.806 36.7944L397.608 36.8024C395.977 36.8084 394.774 37.4509 393.15 39.2292C391.95 40.5807 378.24 52.8253 362.692 66.4237C347.144 80.093 328.416 96.5391 320.995 103.018C293.504 127.153 280.288 138.687 265.869 151.076C257.741 158.054 230.179 182.26 204.738 204.828C193.945 214.371 182.809 224.222 172.953 232.941L172.941 232.952L172.93 232.961C159.564 244.785 148.556 254.522 143.961 258.578C124.695 275.57 110.534 288.225 101.207 296.785L93.3783 288.753L100.658 282.416C104.615 278.857 107.865 275.796 107.864 275.442C107.863 275.158 102.877 268.866 96.753 261.515L95.8321 260.41L95.8207 260.396C90.0886 253.515 85.1878 247.632 84.6476 247.096C83.7937 246.248 83.6607 248.659 83.7171 264.115L83.8538 282.173L76.4606 276.762L76.9435 273.073C77.1489 271.087 77.3409 265.415 77.3226 260.381C77.3045 255.418 77.077 251.378 76.7937 251.45C75.872 251.453 60.3927 264.484 60.5366 265.051L48.8806 257.223L58.2808 249.177C95.7393 216.853 140.772 181.239 191.752 143.406C214.874 126.305 292.38 71.785 346.977 34.2221C360.202 25.1697 372.012 16.9732 373.143 15.9765C374.668 14.7399 375.096 14.1746 373.137 14.4197L372.257 6.46059ZM371.682 42.9943C370.617 42.7855 366.645 42.3037 362.957 41.8918C362.659 41.862 362.369 41.833 362.089 41.8048C357.544 41.3487 355.285 41.122 353.245 41.6851C351.229 42.2412 349.427 43.5676 345.844 46.204C345.563 46.411 345.271 46.626 344.967 46.8494L337.401 52.478L345.288 57.1286C349.622 59.6651 353.316 61.7787 353.529 61.7779C354.025 61.7761 370.562 46.9688 372.397 44.8351C373.021 44.1365 373.339 43.7809 373.266 43.5504C373.189 43.3116 372.693 43.2071 371.682 42.9943ZM347.807 67.3997C348.018 67.1154 344.677 64.6461 340.413 61.8966C336.078 59.1474 332.313 56.8924 331.958 56.8937C331.249 56.8963 315.974 67.5159 315.692 68.155C315.482 68.7938 347.171 68.0402 347.807 67.3997ZM338.549 75.6578L334.365 75.2477C332.024 74.9726 325.855 74.7824 320.75 74.7301L311.32 74.6937L311.363 86.4627C311.387 93.0562 311.689 98.0889 312.043 97.9458C312.397 97.8028 318.476 92.7468 325.615 86.6944L338.549 75.6578ZM289.866 101.784C300.738 108.338 301.092 108.408 303.846 105.349C304.976 104.14 305.041 102.509 304.854 90.1732L304.591 76.3489L291.933 85.3993C285.003 90.3166 279.347 94.662 279.348 94.9456C279.42 95.2289 284.111 98.3314 289.866 101.784ZM294.303 113.112C294.373 112.899 290.82 110.572 286.485 107.965C282.08 105.358 277.391 102.539 276.182 101.693L273.837 100.212L273.892 115.243C273.944 129.493 274.018 130.273 275.149 129.347C279.461 125.928 294.092 113.467 294.303 113.112ZM266.444 133.704C266.657 133.703 266.845 126.967 266.815 118.813C266.785 110.589 266.548 103.926 266.265 103.927C264.776 104.074 244.835 118.539 244.839 119.461C244.841 119.957 265.735 133.706 266.444 133.704ZM262.92 139.459C262.564 139.106 257.376 135.651 251.406 131.702C245.436 127.754 240.107 124.37 239.68 124.159C238.757 123.808 225.461 132.648 217.613 138.774C216.655 139.528 215.683 140.283 214.845 140.934L214.842 140.936C213.703 141.821 212.808 142.517 212.523 142.763C211.887 143.261 219.403 143.517 235.497 143.53L259.461 143.513L261.511 141.804C262.641 140.807 263.276 139.741 262.92 139.459ZM231.12 168.077C232.606 167.22 252.113 150.559 251.829 150.347C251.402 149.923 218.788 149.759 212.834 150.135L206.596 150.583L214.986 157.004C216.957 158.539 219.044 160.151 220.934 161.61L220.938 161.614C223.477 163.574 225.658 165.258 226.717 166.107C228.992 167.872 230.342 168.505 231.12 168.077ZM217.622 179.966C221.438 176.691 224.406 173.844 224.334 173.56C224.191 173.277 219.07 168.9 212.954 163.818L201.719 154.571L201.861 193.636L206.314 189.791C208.717 187.655 213.805 183.241 217.622 179.966ZM162.818 180.237C162.821 181.088 194.656 200.965 195.222 200.466C195.363 200.253 195.397 190.186 195.281 177.991L194.988 155.801L187.494 161.784C183.394 165.06 176.182 170.404 171.444 173.753C166.777 177.103 162.888 180.024 162.818 180.237ZM188.858 205.24C188.786 204.886 181.821 200.232 173.435 194.874C165.05 189.516 158.015 185.146 157.731 185.147C157.377 185.149 157.203 195.855 157.251 208.971L157.338 232.793L161.861 228.948C182.854 211.288 189.002 205.878 188.858 205.24ZM150.245 231.897L150.167 210.628C150.124 199 150.019 189.429 149.877 189.43C149.381 189.432 122.522 212.288 122.524 212.714C122.525 213.068 125.511 215.184 129.064 217.511C132.689 219.837 138.943 223.998 142.923 226.819L150.245 231.897ZM149.562 239.202C149.561 238.919 142.525 234.194 133.997 228.624C125.398 223.125 118.221 218.614 118.008 218.615C117.795 218.616 117.615 227.62 117.585 238.61C117.625 249.67 117.523 260.66 117.319 263.071C117.116 265.553 117.194 267.538 117.407 267.537C118.045 267.535 149.564 239.769 149.562 239.202ZM109.605 266.857L109.778 255.867C109.827 249.84 109.79 239.914 109.698 233.888L109.445 222.971L100.257 230.803C99.1038 231.791 98.059 232.682 97.1137 233.488L97.1127 233.489C90.5941 239.049 88.8135 240.567 88.9903 241.807C89.0568 242.273 89.3996 242.699 89.8713 243.286C90.0487 243.507 90.2442 243.75 90.4501 244.026C91.5901 245.582 96.3613 251.307 101.061 256.82L109.605 266.857Z" fill="#003478"/>
<path fill-rule="evenodd" clip-rule="evenodd" d="M407 18.5L394.503 18.4975L406.166 14C406.704 15.3963 407 16.9136 407 18.5Z" fill="#D9D9D9"/>
<path fill-rule="evenodd" clip-rule="evenodd" d="M403.695 10.0323L394.503 18.4975L399.697 7.1281C401.218 7.82445 402.575 8.81712 403.695 10.0323Z" fill="#D9D9D9"/>
<path fill-rule="evenodd" clip-rule="evenodd" d="M403.695 26.9677L394.503 18.4975L406.166 23C405.595 24.479 404.75 25.8222 403.695 26.9677Z" fill="#D9D9D9"/>
<path fill-rule="evenodd" clip-rule="evenodd" d="M394.503 18.4975L399.694 29.8731C398.112 30.5967 396.353 31 394.5 31L394.503 18.4975Z" fill="#D9D9D9"/>
<path fill-rule="evenodd" clip-rule="evenodd" d="M385.305 26.9677L394.503 18.4975L394.501 18.5017L389.306 29.8731C387.783 29.1767 386.425 28.1836 385.305 26.9677Z" fill="#D9D9D9"/>
<path fill-rule="evenodd" clip-rule="evenodd" d="M394.503 18.5058L394.503 18.4975L394.501 18.5017L394.503 18.5058Z" fill="#D9D9D9"/>
<path fill-rule="evenodd" clip-rule="evenodd" d="M385.305 10.0323L394.496 18.4915L394.503 18.4975L394.494 18.4975L382.834 14C383.405 12.521 384.25 11.1778 385.305 10.0323Z" fill="#D9D9D9"/>
<path fill-rule="evenodd" clip-rule="evenodd" d="M394.503 18.4975L394.5 6C392.646 6 390.886 6.40374 389.303 7.1281L394.496 18.4915L394.503 18.4975ZM394.503 18.4975L394.494 18.4975L382 18.5C382 20.0864 382.296 21.6037 382.834 23L394.5 18.5L394.503 18.4975Z" fill="#D9D9D9"/>
</svg>
