<svg width="363" height="144" viewBox="0 0 363 144" fill="none" xmlns="http://www.w3.org/2000/svg">
<path fill-rule="evenodd" clip-rule="evenodd" d="M224.51 0.335831V5.22781V10.1198L255.705 9.69443L286.901 9.33994V25.363V41.4569H279.385H271.941L272.154 44.3638L272.366 47.2706L282.292 51.8081C315.375 67.0964 318.944 68.7075 320.648 71.4691C320.872 71.8323 321.064 72.2154 321.286 72.6522C322.137 74.3538 322.35 78.1823 322.35 93.5673V112.355H324.689C328.943 112.355 332.559 113.844 335.537 116.893C338.869 120.225 340.074 123.486 340.074 129.513V133.625H344.045H348.015L347.731 138.446L347.519 143.196L336.388 143.409L325.186 143.622V138.942V134.334H316.323H307.461V138.942V143.622L297.11 143.409L286.759 143.196L286.617 138.375L286.546 133.625H289.807H293.069L293.494 128.946C294.416 119.02 299.095 113.419 307.036 112.568L311.006 112.143V98.8847C311.006 86.8319 310.864 85.414 309.659 83.9251L308.312 82.2235L279.882 82.0108L251.451 81.7981V97.1122V112.355H237.272H223.163L218.625 98.3175L214.017 84.3505H175.59H137.092L133.122 98.3884L129.151 112.355H115.893H102.565V97.1122V81.869H71.3692C49.178 81.869 39.7485 82.0817 38.4015 82.7198C35.7073 83.9251 35.1401 87.1864 35.3528 100.303L35.5655 112.001L39.4649 112.426C41.5919 112.639 44.4278 113.348 45.704 114.057C50.3833 116.467 53.6446 123.345 53.6446 130.789V133.625H57.0478H60.38L60.1673 138.588L59.8837 143.551H49.3198H38.756V138.942V134.334H29.8937H21.0313V138.871V143.48L10.5384 143.338L0.116309 143.196L0.0454102 138.446V133.625H3.30674H6.63897L7.06436 128.378C7.77334 118.311 13.3034 112.355 21.953 112.355H23.8673V93.7091C23.8673 80.1194 23.5953 74.803 26.0118 71.3902C27.8691 68.7671 31.3146 67.2686 37.6925 64.0026C43.5771 61.0249 53.8573 56.1329 60.5218 53.0843L72.7872 47.6251V44.5765V41.4569H64.6339H56.4806V25.4339V9.41083L99.0196 9.69443L141.63 9.90712L141.417 5.29872L141.204 0.690323L224.51 0.335831Z" fill="#0A388F"/>
</svg>
