<svg width="594" height="479" viewBox="0 0 594 479" fill="none" xmlns="http://www.w3.org/2000/svg">
<path d="M572.8 0C574.475 0.286049 576.144 0.617812 577.8 1C579.335 6.59534 580.214 11.8845 580.616 17.6641C580.678 18.4598 580.739 19.2555 580.802 20.0753C580.995 22.5914 581.179 25.1081 581.362 27.625C581.55 30.1489 581.74 32.6726 581.933 35.1961C582.052 36.7586 582.168 38.3213 582.28 39.8842C582.433 41.9244 582.616 43.9624 582.8 46C582.896 47.1013 582.993 48.2027 583.093 49.3374C583.521 52.1357 583.521 52.1357 585.816 53.341C587.8 55 587.8 55 588.281 57.3728C588.272 58.3077 588.263 59.2426 588.254 60.2058C588.254 61.2667 588.253 62.3276 588.253 63.4206C588.232 64.5644 588.212 65.7082 588.19 66.8867C588.185 68.0589 588.179 69.231 588.173 70.4387C588.151 74.1887 588.101 77.9378 588.05 81.6875C588.03 84.2272 588.011 86.7669 587.995 89.3066C587.951 95.5381 587.884 101.769 587.8 108C589.006 108.464 589.006 108.464 590.237 108.938C592.8 110 592.8 110 593.8 111C593.9 112.954 593.928 114.911 593.929 116.868C593.932 118.166 593.935 119.463 593.939 120.801C593.937 122.277 593.935 123.754 593.933 125.23C593.934 126.814 593.935 128.398 593.937 129.982C593.941 135.384 593.934 140.786 593.925 146.188C593.922 148.083 593.92 149.979 593.917 151.875C593.903 161.591 593.88 171.307 593.852 181.023C593.816 193.364 593.793 205.705 593.78 218.046C593.764 234.969 593.726 251.892 593.665 268.814C593.632 277.848 593.608 286.881 593.605 295.915C593.602 303.731 593.581 311.547 593.539 319.363C593.518 323.418 593.505 327.473 593.514 331.529C593.521 335.291 593.505 339.053 593.472 342.815C593.46 344.828 593.472 346.841 593.485 348.854C593.388 356.547 592.487 363.313 586.8 369C586.687 370.804 586.643 372.611 586.626 374.418C586.606 376.156 586.606 376.156 586.585 377.929C586.575 379.193 586.564 380.456 586.554 381.758C586.529 383.731 586.505 385.705 586.48 387.679C586.419 392.559 586.368 397.439 586.323 402.319C586.297 405.051 586.266 407.783 586.23 410.514C586.196 413.088 586.171 415.663 586.153 418.237C586.069 424.215 585.826 429.363 583.8 435C581.341 443.657 581.165 452.509 580.771 461.451C580.679 463.455 580.57 465.458 580.46 467.461C580.405 468.645 580.349 469.829 580.292 471.048C579.8 474 579.8 474 578.458 475.834C576.085 477.502 573.567 478.201 570.8 479C566.466 474.55 565.057 471.508 564.979 465.223C564.949 464.493 564.919 463.763 564.888 463.012C564.795 460.696 564.732 458.38 564.675 456.062C564.607 453.749 564.531 451.437 564.44 449.124C564.385 447.691 564.343 446.257 564.316 444.823C564.19 441.296 563.713 438.801 562.295 435.547C560.498 431.285 560.342 427.905 560.323 423.34C560.301 422.111 560.301 422.111 560.278 420.857C560.247 419.115 560.223 417.373 560.205 415.63C560.175 412.918 560.124 410.206 560.068 407.494C559.937 401.032 559.823 394.569 559.764 388.106C559.736 385.07 559.678 382.036 559.612 379C559.619 378.174 559.625 377.347 559.631 376.496C559.51 371.995 558.802 369.701 555.795 366.301C552.336 361.847 551.971 358.519 552.101 353C552.095 352.143 552.09 351.285 552.084 350.402C552.074 348.559 552.077 346.717 552.091 344.874C552.127 339.957 552.064 335.042 552.007 330.125C551.997 329.12 551.987 328.115 551.977 327.08C551.846 316.686 551.141 306.357 550.3 296C550.234 295.172 550.167 294.344 550.099 293.49C549.791 289.664 549.473 285.839 549.14 282.016C548.918 279.464 548.727 276.916 548.554 274.359C548.48 273.292 548.407 272.225 548.331 271.125C548.275 270.22 548.219 269.315 548.161 268.383C547.774 265.829 547.192 264.171 545.8 262C543.812 260.648 541.813 259.313 539.8 258C539.8 257.34 539.8 256.68 539.8 256C529.41 255.598 519.019 255.298 508.624 255.064C506.684 255.02 504.744 254.975 502.804 254.929C496.476 254.78 490.149 254.67 483.82 254.603C481.732 254.576 479.643 254.539 477.554 254.49C474.591 254.424 471.631 254.397 468.667 254.379C467.788 254.351 466.909 254.323 466.003 254.295C460.136 254.314 456.867 255.748 452.314 259.442C450.408 261.403 449.763 263.47 448.8 266C446.253 267.258 446.253 267.258 443.05 268.125C441.886 268.442 440.722 268.759 439.522 269.086C438.294 269.388 437.066 269.689 435.8 270C433.973 270.452 433.973 270.452 432.108 270.914C425.825 272.365 420.23 273.14 413.8 273C413.713 271.858 413.627 270.716 413.538 269.539C412.394 255.916 409.994 242.677 407.227 229.296C406.8 227 406.8 227 406.8 225C408.768 223.583 408.768 223.583 411.515 221.953C412.512 221.355 413.509 220.757 414.536 220.141C415.593 219.517 416.649 218.893 417.737 218.25C424.879 213.997 431.94 209.697 438.8 205C438.142 201.139 437.232 199.067 434.8 196C434.8 195.34 434.8 194.68 434.8 194C434.14 194 433.48 194 432.8 194C432.8 193.34 432.8 192.68 432.8 192C432.14 191.67 431.48 191.34 430.8 191C487.23 190.505 487.23 190.505 544.8 190C548.451 180.026 548.451 180.026 549.925 170C550 169.121 550.075 168.243 550.152 167.337C550.623 161.278 550.874 155.22 551.062 149.147C551.183 145.282 551.321 141.418 551.457 137.553C551.549 134.662 551.607 131.771 551.664 128.879C551.723 127.057 551.784 125.236 551.847 123.414C551.853 122.585 551.86 121.755 551.866 120.9C552.063 116.228 552.735 113.713 555.806 110.131C559.859 105.251 559.665 100.637 559.647 94.4922C559.672 93.4079 559.696 92.3237 559.72 91.2066C559.795 87.7625 559.833 84.3197 559.862 80.875C559.897 77.4233 559.941 73.9731 560.015 70.522C560.061 68.381 560.084 66.2394 560.082 64.0979C560.22 57.4644 561.368 55.0825 565.8 50C566.691 46.7726 566.885 43.552 567.093 40.2188C567.17 39.287 567.247 38.3553 567.326 37.3954C567.567 34.4315 567.779 31.4664 567.987 28.5C568.212 25.5343 568.442 22.5692 568.681 19.6046C568.827 17.7644 568.964 15.9235 569.092 14.0819C569.943 2.85681 569.943 2.85681 572.8 0Z" fill="#393834"/>
<path d="M17.7998 1C20.3623 0.75 20.3623 0.75 22.7998 1C24.781 2.98125 24.443 6.68986 24.7373 9.41016C24.8223 10.1699 24.9073 10.9295 24.9949 11.7123C25.1752 13.3337 25.3532 14.9555 25.5293 16.5774C25.7931 19.0009 26.0654 21.4233 26.3389 23.8457C26.5143 25.4296 26.6887 27.0136 26.8623 28.5977C26.9487 29.3814 27.0352 30.1651 27.1243 30.9726C27.5343 34.8537 27.8576 38.7123 28.0068 42.6128C28.037 43.3416 28.0673 44.0705 28.0984 44.8214C28.1702 46.8054 28.2163 48.7903 28.2607 50.7751C28.9047 54.6275 30.1128 55.3238 32.7998 58C33.4004 61.2139 33.4004 61.2139 33.5342 65.0469C33.5774 66.0919 33.5774 66.0919 33.6215 67.1581C33.8251 72.6076 33.875 78.063 33.9404 83.5156C33.9503 84.3138 33.9602 85.112 33.9703 85.9344C33.9845 87.1367 33.9845 87.1367 33.999 88.3633C34.0085 89.1659 34.018 89.9685 34.0278 90.7954C34.0427 92.4532 34.05 94.1111 34.0503 95.769C34.0536 98.2062 34.088 100.641 34.1279 103.078C34.1209 103.817 34.1138 104.555 34.1065 105.316C34.1095 107.67 34.1095 107.67 34.7998 111C35.6255 111.619 36.4513 112.238 37.302 112.876C39.7998 115 39.7998 115 40.4178 117.588C40.4145 118.576 40.4112 119.563 40.4078 120.581C40.4203 122.291 40.4203 122.291 40.433 124.036C40.4166 125.286 40.4002 126.536 40.3833 127.824C40.3835 129.161 40.3859 130.499 40.3903 131.836C40.3959 135.494 40.3704 139.151 40.3395 142.809C40.312 146.705 40.3132 150.601 40.3109 154.497C40.3018 162.022 40.266 169.548 40.2199 177.073C40.1834 183.125 40.1561 189.177 40.1358 195.23C40.1329 196.085 40.13 196.94 40.1271 197.821C40.1213 199.55 40.1155 201.278 40.1098 203.007C40.0605 217.617 39.9877 232.227 39.9014 246.836C39.8172 261.086 39.7787 275.335 39.7738 289.585C39.7704 297.337 39.7455 305.088 39.7099 312.84C39.6874 317.789 39.6733 322.737 39.6813 327.686C39.6878 332.223 39.6662 336.759 39.6216 341.296C39.6105 342.908 39.6092 344.519 39.6193 346.13C39.6666 354.574 39.1401 360.704 34.1718 367.781C31.9198 371.423 31.8639 374.906 31.8115 379.102C31.7618 380.349 31.7618 380.349 31.7111 381.622C31.6108 384.289 31.549 386.956 31.4873 389.625C31.423 391.47 31.3558 393.314 31.2859 395.158C31.0922 400.438 30.9421 405.719 30.7998 411C30.6959 414.652 30.5859 418.305 30.4612 421.957C30.398 423.86 30.3483 425.764 30.3162 427.668C30.1894 431.975 29.7082 435.609 28.3271 439.699C25.7787 447.486 25.981 455.708 25.6279 463.828C25.5609 465.079 25.4939 466.329 25.4248 467.617C25.3758 468.748 25.3268 469.878 25.2764 471.042C24.7581 474.259 24.1235 475.737 21.7998 478C18.6123 478.25 18.6123 478.25 15.7998 478C12.6649 471.965 12.3016 466.738 12.1748 460C12.4077 448.995 12.4077 448.995 8.7998 439C8.52374 436.125 8.52374 436.125 8.48437 432.576C8.47421 431.928 8.46405 431.281 8.45358 430.613C8.43219 429.207 8.41494 427.801 8.40134 426.395C8.37769 424.161 8.33876 421.928 8.2951 419.695C8.17216 413.344 8.06417 406.994 7.99707 400.642C7.95489 396.754 7.88405 392.868 7.79555 388.98C7.76744 387.507 7.74983 386.033 7.74344 384.559C7.73349 382.481 7.68686 380.407 7.63281 378.33C7.61664 377.153 7.60046 375.976 7.5838 374.764C6.80329 371.017 5.90712 369.502 3.798 366.425C0.459334 360.966 -0.0506979 356.742 0.0446284 350.441C0.035974 349.426 0.027319 348.41 0.0184024 347.365C-0.00306033 343.989 0.0180463 340.614 0.0393031 337.239C0.0328054 334.808 0.0237411 332.378 0.0123103 329.948C-0.00833377 324.05 -0.00109083 318.153 0.0198119 312.255C0.03613 307.463 0.0402865 302.671 0.0358451 297.879C0.0352144 297.196 0.0345837 296.513 0.0339339 295.809C0.0325878 294.42 0.0312077 293.032 0.029795 291.644C0.0178788 278.65 0.041877 265.656 0.0788138 252.662C0.109752 241.51 0.112051 230.359 0.093014 219.207C0.070915 206.247 0.064742 193.287 0.085337 180.327C0.0874999 178.946 0.0896487 177.565 0.0917838 176.184C0.0928502 175.505 0.0939162 174.825 0.0950149 174.126C0.101488 169.335 0.0967157 164.545 0.0877593 159.755C0.0761409 153.316 0.0912455 146.877 0.124502 140.438C0.132736 138.07 0.132395 135.702 0.123024 133.335C0.111669 130.113 0.130863 126.892 0.158154 123.671C0.147682 122.725 0.13721 121.78 0.126421 120.805C0.164162 118.428 0.220235 116.306 0.799801 114C3.29626 112.105 3.29626 112.105 5.7998 111C6.36158 108.299 6.57837 106.191 6.59668 103.477C6.62099 102.727 6.6453 101.977 6.67035 101.205C6.74058 98.8032 6.77393 96.4029 6.7998 94C6.82489 92.4489 6.85027 90.8978 6.87597 89.3467C6.92053 86.2481 6.96124 83.1495 6.99902 80.0508C7.00853 79.282 7.01803 78.5133 7.02783 77.7212C7.04264 76.1392 7.04997 74.5571 7.05029 72.9751C7.05363 70.6362 7.08811 68.2995 7.12793 65.9609C7.12086 65.2629 7.11379 64.5649 7.1065 63.8458C7.20325 59.9244 7.84216 57.6434 10.2747 54.6812C13.7981 50.2163 13.6856 45.6592 13.874 40.1406C13.9562 38.6013 13.9562 38.6013 14.04 37.0309C14.2108 33.7713 14.3508 30.5113 14.4873 27.25C14.6394 23.9749 14.7981 20.7004 14.9667 17.4262C15.0699 15.3934 15.1627 13.36 15.2441 11.3262C15.2878 10.4081 15.3316 9.48992 15.3767 8.54395C15.4105 7.73677 15.4443 6.9296 15.479 6.09796C15.7998 4 15.7998 4 17.7998 1Z" fill="#3B3A36"/>
<path d="M37.2432 190.122C72.8832 190.122 125.323 187.711 162.043 187.711C162.043 188.371 162.043 189.031 162.043 189.711C161.389 189.847 160.736 189.982 160.062 190.122C158.115 190.527 156.167 190.932 154.22 191.337C152.007 191.797 179.256 217.253 177.043 217.711C170.153 219.137 161.301 229.006 129.082 207.711C121.126 209.545 182.204 214.295 174.043 214.711C174.538 222.631 110.538 206.631 111.043 214.711C113.023 214.051 115.003 213.391 117.043 212.711C119.75 212.457 119.75 212.457 122.526 212.452C124.097 212.443 124.097 212.443 125.701 212.433C127.375 212.439 127.375 212.439 129.082 212.445C130.24 212.443 131.399 212.441 132.592 212.44C135.035 212.438 137.477 212.442 139.92 212.45C143.662 212.461 147.403 212.45 151.145 212.438C153.52 212.439 155.895 212.441 158.27 212.445C159.389 212.441 160.509 212.437 161.663 212.433C162.704 212.439 163.746 212.446 164.819 212.452C165.733 212.454 166.648 212.455 167.59 212.457C170.224 212.73 171.844 213.244 174.043 214.711C174.793 217.336 174.793 217.336 175.043 219.711C175.703 219.051 176.363 218.391 177.043 217.711C181.516 237.085 185.086 256.622 188.655 276.178C189.399 280.248 190.155 284.315 190.952 288.375C191.093 289.101 191.234 289.826 191.379 290.573C191.756 292.505 192.139 294.435 192.523 296.365C193.017 299.545 193.142 302.5 193.043 305.711C189.892 306.684 186.74 307.654 183.586 308.617C181.416 309.287 179.251 309.971 177.094 310.68C176.231 310.958 175.369 311.237 174.48 311.523C173.716 311.777 172.952 312.031 172.164 312.293C169.767 312.765 168.364 312.365 166.043 311.711C165.766 310.642 165.489 309.574 165.204 308.473C164.163 304.463 163.106 300.457 162.045 296.452C161.59 294.727 161.139 293.001 160.693 291.273C156.174 273.321 156.174 273.321 145.355 258.648C144.87 258.177 144.385 257.706 143.885 257.221C139.253 252.781 136.338 252.552 130.105 252.506C129.285 252.496 128.466 252.486 127.621 252.476C124.905 252.444 122.189 252.419 119.473 252.395C117.592 252.374 115.712 252.353 113.831 252.332C108.876 252.276 103.921 252.227 98.9664 252.179C93.0243 252.12 87.0822 252.053 81.1401 251.988C72.1077 251.89 46.2756 257.311 37.2432 257.221C37.2432 236.101 37.2432 211.882 37.2432 190.122Z" fill="#363531"/>
<path d="M407.8 174C407.8 175.65 407.8 177.3 407.8 179C407.14 179 406.48 179 405.8 179C406.233 179.831 406.233 179.831 406.675 180.68C407.232 181.766 407.232 181.766 407.8 182.875C408.171 183.594 408.542 184.314 408.925 185.055C409.8 187 409.8 187 409.8 189C420.03 189.33 430.26 189.66 440.8 190C440.8 190.33 440.8 190.66 440.8 191C436.84 191.495 436.84 191.495 432.8 192C432.8 192.66 432.8 193.32 432.8 194C433.46 194 434.12 194 434.8 194C436.124 195.609 436.124 195.609 437.487 197.75C438.174 198.794 438.174 198.794 438.874 199.859C439.8 202 439.8 202 439.718 204.078C438.447 206.738 436.96 207.502 434.425 209C433.449 209.589 432.473 210.178 431.468 210.785C430.902 211.123 430.337 211.461 429.754 211.809C427.451 213.212 425.182 214.664 422.913 216.121C422.061 216.667 421.209 217.213 420.331 217.775C418.611 218.878 416.892 219.982 415.175 221.088C414.38 221.594 413.584 222.1 412.765 222.621C412.049 223.079 411.334 223.537 410.596 224.01C408.8 225 408.8 225 406.8 225C406.97 225.683 407.14 226.366 407.315 227.07C414.804 258.219 414.804 258.219 413.8 273C414.79 273.495 414.79 273.495 415.8 274C410.657 275.608 405.711 276.528 400.362 277.125C399.631 277.211 398.899 277.298 398.146 277.387C396.364 277.596 394.582 277.799 392.8 278C390.524 266.623 388.249 255.246 385.974 243.869C385.728 242.644 385.483 241.418 385.231 240.156C384.745 237.725 384.259 235.294 383.775 232.863C382.8 227.975 381.824 223.088 380.806 218.209C379.444 211.636 378.27 205.21 377.925 198.5C377.866 197.768 377.806 197.036 377.745 196.281C377.446 191.048 378.426 187.673 380.8 183C381.46 183 382.12 183 382.8 183C382.8 182.34 382.8 181.68 382.8 181C384.859 180.014 386.922 179.037 388.987 178.062C390.136 177.517 391.284 176.972 392.468 176.41C397.739 174.179 402.097 173.888 407.8 174Z" fill="#151516"/>
</svg>
