<svg width="285" height="63" viewBox="0 0 285 63" fill="none" xmlns="http://www.w3.org/2000/svg">
<path d="M0.415039 0C0.502023 0.289946 2.4728 0.41799 8.77539 0.46875C11.4945 0.490649 15.0205 0.498047 19.5488 0.498047C42.6661 0.456547 44.4513 0.706087 59.8906 5.4375L66.6553 7.55371L104.922 7.5957C139.702 7.67871 193.45 8.21826 248.94 9.00684C264.961 9.21436 270.647 9.46289 272.349 9.87793C273.552 10.21 274.756 10.3345 275.005 10.21C275.295 10.0025 275.336 10.127 275.129 10.459C274.88 10.8738 274.964 10.9574 275.503 10.75C275.918 10.584 276.125 10.625 275.959 10.874C275.711 11.2892 277.951 12.6171 278.408 12.3271C278.533 12.2026 278.574 12.2441 278.449 12.4102C278.327 12.5366 279.031 13.4905 279.943 14.4854C280.856 15.5229 282.226 17.5562 282.932 19.0918C284.177 21.7065 284.26 22.1636 284.26 26.4385C284.26 30.9207 283.554 34.3657 282.766 33.9092C282.558 33.7433 282.6 34.1583 282.849 34.8223C283.056 35.4446 283.14 35.8593 282.974 35.6934C282.849 35.5273 282.019 36.2744 281.147 37.3535C280.317 38.4741 278.989 39.8857 278.2 40.5498C277.412 41.1723 276.831 41.8775 276.914 42.085C276.956 42.2925 276.873 42.3755 276.665 42.251C276.25 42.002 273.013 43.123 272.1 43.7871L267.99 44.3682C267.658 43.7871 262.761 43.9941 214.741 46.5674C193.865 47.688 156.055 50.0127 129.866 51.7559C124.844 52.0879 115.049 52.5439 108.076 52.793C89.8981 53.4155 74.7497 54.3706 71.0967 55.0762C69.3536 55.4082 63.5844 56.7779 58.2305 58.1475C44.3267 61.7168 42.334 61.9238 19.6729 61.9238C2.90528 61.9238 0.581055 62.0068 0 62.5879L0.415039 0ZM38.9307 35.6104C37.229 34.9463 37.063 35.7769 37.1875 46.6094L37.3125 56.7363L41.0479 56.8604C46.111 57.0263 48.8919 56.4867 57.8564 53.54C65.4517 51.0498 67.4023 50.2612 67.4023 49.4727C67.4023 48.8502 60.7645 45.6558 60.0566 45.9033C59.6831 46.0693 59.5996 45.9863 59.7656 45.6543C59.9731 45.3223 59.8486 45.2812 59.3506 45.4473C58.9772 45.6132 58.728 45.5713 58.8525 45.4053C59.1846 44.8657 51.8384 41.4214 51.2158 41.7949C50.884 42.0023 50.7599 41.9608 50.9258 41.7119C51.2578 41.1724 46.4014 38.9307 45.7373 39.3457C45.4883 39.5117 45.4059 39.4705 45.5303 39.2217C45.8623 38.6821 40.2588 35.9844 39.5947 36.3994C39.2629 36.6067 39.1388 36.5653 39.3047 36.3164C39.4707 36.0674 39.3042 35.7349 38.9307 35.6104ZM78.7334 17.0166C77.2393 15.481 76.5337 15.1494 75.9941 15.7305C75.8281 15.855 75.7031 22.8691 75.7031 31.2529C75.7031 45.2808 75.7446 46.5674 76.4502 47.3975L77.1973 48.3105L87.9473 47.8545C93.8822 47.6055 100.647 47.3975 102.93 47.3975C108.574 47.3975 109.031 46.9407 106.209 44.0771C105.131 42.9573 104.052 42.0868 103.885 42.127C103.719 42.1685 103.594 42.0435 103.594 41.8359C103.594 41.6699 100.398 38.2665 96.4971 34.3652C92.5548 30.423 89.484 27.1035 89.6074 26.9365C89.7319 26.7705 89.6904 26.7291 89.5244 26.8535C89.0679 27.1855 86.0796 24.0723 86.3701 23.5742C86.4945 23.3255 86.4943 23.2425 86.2871 23.4082C86.1211 23.5742 84.751 22.6196 83.2568 21.25C81.8042 19.8804 80.3516 18.8848 80.1025 19.0508C79.8537 19.1752 79.7711 19.1337 79.9785 18.9678C80.1445 18.7603 79.6048 17.8881 78.7334 17.0166ZM121.357 13.9873C120.486 12.9497 119.822 13.2817 119.531 14.9004C119.407 15.7741 119.282 23.0361 119.282 31.0449C119.282 42.915 119.407 45.7378 119.863 46.1113C120.534 46.6505 149.163 45.9037 150.742 45.2812C151.987 44.7832 151.904 44.036 150.41 42.625C149.746 42.0024 149.332 41.2549 149.456 41.0059C149.58 40.757 149.539 40.7159 149.373 40.8818C148.834 41.3383 135.971 28.3928 136.092 27.5176C136.133 27.1441 136.092 27.1022 136.009 27.3926C135.884 27.6831 134.016 26.2307 131.443 23.7822C129.038 21.5011 126.964 19.676 126.795 19.7148C126.67 19.7563 126.546 19.6729 126.546 19.5068C126.546 19.3408 125.549 18.2206 124.346 16.9756C123.142 15.7721 122.313 14.61 122.479 14.4023C122.686 14.2364 122.603 14.1948 122.354 14.3193C122.063 14.4851 121.648 14.3191 121.357 13.9873ZM70.5156 16.8096C69.395 16.7266 68.6064 17.0586 68.8555 17.5566C69.0207 17.7636 68.8549 17.8049 68.5234 17.6807C67.6519 17.3486 52.7515 24.9023 53.125 25.4834C53.291 25.7739 53.2495 25.8154 52.959 25.6494C52.2949 25.2344 49.0576 26.9775 49.3896 27.5586C49.5557 27.8491 49.5142 27.8906 49.2236 27.7246C48.5181 27.3096 43.6626 29.8833 44.0361 30.5059C44.2014 30.7956 43.9527 30.7125 43.5381 30.3809C42.8325 29.7998 42.791 29.8418 43.04 30.5059C43.2057 30.9617 43.1639 31.1692 42.874 31.0039C42.376 30.6719 41.1719 31.585 41.5039 32.083C41.8786 32.7058 45.5304 34.1582 46.1113 33.9092C46.4431 33.8263 46.6088 33.8672 46.4844 34.0332C46.1524 34.5727 51.0488 36.7722 51.6309 36.3994C52.0043 36.1504 52.0877 36.2331 51.8389 36.6064C51.5899 37.0214 51.6725 37.1049 52.2119 36.8975C52.5854 36.7314 52.8345 36.7729 52.71 36.9805C52.3812 37.4795 58.9777 40.4662 59.5586 40.0928C59.8902 39.8856 59.9319 39.9686 59.7246 40.3418C59.4756 40.7568 59.5583 40.8403 60.0977 40.6328C60.5542 40.4253 60.7202 40.5078 60.5127 40.8398C60.3052 41.1718 60.4298 41.2138 60.9277 41.0479C61.3013 40.8818 61.5503 40.9229 61.4258 41.0889C61.1768 41.5039 69.6436 45.7373 70.7227 45.7373C71.5527 45.7373 71.5527 45.4883 71.4697 31.2939L71.4688 31.1445C71.3456 17.2247 71.3422 16.8924 70.5156 16.8096ZM143.064 12.9492C131.485 12.9492 127.542 13.0737 127.334 13.4473C126.96 14.0283 139.826 26.6864 140.615 26.5215C140.864 26.48 141.031 26.646 140.989 26.9365C140.869 27.5214 151.196 37.5166 151.655 37.2295C151.821 37.105 152.195 37.3125 152.485 37.6445C152.776 37.9764 152.859 38.2666 152.651 38.2666C152.485 38.2666 153.108 39.0557 154.062 40.0518C155.017 41.0478 155.723 41.961 155.599 42.127C155.474 42.2928 155.515 42.3341 155.64 42.21C155.806 42.127 156.428 42.3755 157.051 42.832C157.673 43.2886 158.296 43.4961 158.462 43.3301C158.628 43.1641 158.711 43.3301 158.628 43.6621C158.545 44.0356 158.794 44.2432 159.209 44.2432C159.624 44.2017 159.832 44.3267 159.707 44.5342C159.583 44.7415 159.666 44.9072 159.915 44.9072C161.201 44.9068 161.326 43.0379 161.035 29.9658C160.869 22.786 160.662 16.27 160.496 15.5225C160.372 14.7757 159.873 13.9046 159.417 13.5723C158.67 13.0327 156.013 12.9492 143.064 12.9492ZM169.253 15.6475C166.68 13.4478 165.809 13.0327 165.228 13.6553C165.062 13.7798 164.937 20.5034 164.937 28.5967C164.937 42.915 164.937 43.2476 165.809 44.1191C166.555 44.8658 167.012 44.9487 168.838 44.7412C170 44.6167 174.69 44.3262 179.255 44.0771L180.133 44.0332C196.651 43.2055 196.861 43.1947 197.351 42.583C197.724 42.1265 197.683 41.7944 197.102 41.1719C196.728 40.7569 196.23 40.4253 196.064 40.4668C195.899 40.5082 195.691 40.342 195.649 40.1348C195.649 39.8857 195.234 39.3457 194.777 38.8477C194.363 38.3914 194.114 37.8518 194.279 37.6855C194.487 37.5195 194.404 37.437 194.196 37.4785C193.947 37.5611 193.366 37.3948 192.91 37.1045C192.412 36.8555 191.872 36.7725 191.706 36.9385C191.499 37.1041 191.499 37.0214 191.623 36.7314C191.997 36.1504 189.05 33.6187 188.469 33.9922C188.22 34.1163 188.179 34.033 188.345 33.7842C188.677 33.2446 185.314 30.2983 184.733 30.6719C184.485 30.7959 184.443 30.7126 184.567 30.4639C184.899 29.9658 179.629 24.9858 178.882 25.1104C178.633 25.1518 178.467 24.9855 178.508 24.6953C178.632 24.0728 172.946 18.7188 172.282 18.8848C172.034 18.9259 171.826 18.7597 171.867 18.4697C171.95 18.1792 170.747 16.934 169.253 15.6475ZM98.7793 12.9492C84.585 12.9492 82.8003 13.0322 82.5928 13.6133C82.2607 14.4434 82.6758 15.1074 83.2568 14.7754C83.5059 14.6094 83.5889 14.6924 83.4229 14.9414C83.2983 15.1904 83.3398 15.4814 83.5889 15.6475C83.8377 15.8135 83.8798 16.1456 83.7139 16.3945C83.5065 16.7264 83.6306 16.7263 84.0869 16.3945C84.585 15.938 84.834 16.021 85.498 16.8096L86.2871 17.7227L85.249 16.8926C83.5059 15.5229 104.341 36.4824 107.786 39.5537C109.571 41.1306 111.189 42.3345 111.438 42.21C111.646 42.044 111.77 42.1685 111.729 42.459C111.646 42.7497 112.268 43.4139 113.057 43.9531C115.547 45.6961 115.588 45.5293 115.298 28.7207C115.173 20.6274 115.007 13.7378 114.883 13.4473C114.758 13.0737 111.189 12.9492 98.7793 12.9492ZM211.089 15.9795C208.931 14.2778 208.723 14.1528 208.184 14.6924C207.437 15.4394 207.478 41.3315 208.225 41.9189C208.64 42.2925 209.429 42.0848 211.379 41.1719C212.79 40.5078 213.869 39.7607 213.703 39.5117C213.579 39.3043 213.704 39.2217 213.994 39.3047C214.783 39.6362 219.39 37.063 219.058 36.5234C218.892 36.2329 218.975 36.1914 219.224 36.3574C219.888 36.7724 223.125 35.0293 222.793 34.4482C222.627 34.1577 222.668 34.1162 222.959 34.2822C223.582 34.6557 225.988 33.2867 225.656 32.7471C225.532 32.498 225.615 32.4561 225.864 32.6221C226.487 32.9955 229.681 30.9627 229.683 30.1738C229.683 29.3438 227.98 27.8076 227.316 28.0566C227.026 28.1809 226.819 28.0979 226.901 27.8906C227.026 27.3511 219.307 22.0387 218.809 22.3291C218.56 22.4951 218.476 22.4535 218.601 22.1631C218.974 21.6235 214.866 18.6353 214.243 19.0088C213.953 19.1748 213.911 19.1333 214.077 18.8428C214.409 18.3032 212.915 17.3901 212.458 17.8467C212.251 18.0124 212.251 17.9294 212.375 17.6807C212.541 17.4317 211.96 16.685 211.089 15.9795ZM234.829 33.3691C235.327 32.5806 234.165 32.7886 232.463 33.8262C231.592 34.3656 231.052 34.9468 231.218 35.1543C231.384 35.3203 231.301 35.3613 231.052 35.1953C230.469 34.8645 225.864 37.3956 226.196 37.8936C226.279 38.0593 226.03 38.1421 225.615 38.1006C225.242 38.1006 224.951 38.2666 224.992 38.5156C225.034 38.8061 224.785 38.9722 224.37 38.9307C223.997 38.9307 223.706 39.1382 223.789 39.4287C223.831 39.7607 223.748 39.8852 223.54 39.7607C223.333 39.6362 222.751 39.8438 222.253 40.1758C221.133 40.9642 221.714 41.9602 223.166 41.7529C223.664 41.6699 227.441 41.4209 231.55 41.1719L232.351 41.124C245.421 40.3417 245.703 40.3247 245.744 39.4707C245.827 38.5991 244.458 37.6441 243.711 38.1006C243.42 38.3081 243.379 38.2249 243.586 37.8516C243.835 37.4365 243.752 37.354 243.213 37.5615C242.756 37.7689 242.59 37.6855 242.798 37.3535C243.005 37.0215 242.881 36.9805 242.383 37.1465C242.009 37.3124 241.76 37.2705 241.885 37.1045C242.175 36.6064 235.576 33.2032 234.995 33.5352C234.705 33.7012 234.663 33.6597 234.829 33.3691ZM257.697 18.8428C258.61 16.6016 258.112 15.855 256.535 17.1416C255.913 17.5981 255.54 18.1788 255.664 18.4277C255.83 18.7182 255.747 18.7598 255.498 18.5938C255.249 18.4277 253.92 19.1753 252.551 20.2129C251.098 21.3332 249.811 21.9971 249.562 21.8311C249.231 21.6653 249.19 21.7067 249.355 21.9971C249.521 22.2461 249.147 22.7441 248.566 23.1592C248.027 23.5327 247.653 24.0313 247.819 24.2803C247.944 24.5291 247.861 24.5703 247.612 24.4043C247.114 24.1138 239.229 29.3438 239.229 30.0078C239.229 30.3809 239.893 30.5466 240.681 30.3809C240.93 30.3394 240.972 30.4639 240.806 30.6299C240.349 31.0449 242.051 32.1655 242.632 31.792C242.922 31.626 242.964 31.6675 242.798 31.958C242.466 32.5391 244.043 33.4521 244.707 33.0371C244.998 32.8296 245.039 32.9126 244.831 33.2861C244.582 33.701 244.666 33.7846 245.205 33.5771C245.579 33.4111 245.828 33.4522 245.703 33.6182C245.413 34.1162 247.861 35.4443 248.442 35.1123C248.691 34.9463 248.774 34.9878 248.608 35.2783C248.235 35.8594 255.747 39.5947 257.407 39.6777C258.113 39.7192 258.569 39.8438 258.444 40.0098C258.361 40.2171 258.445 40.3416 258.693 40.3418C259.648 40.3418 259.565 39.3457 258.361 37.5195C256.909 35.2369 255.83 31.4603 255.83 28.6797C255.83 26.148 256.784 21.1256 257.697 18.8428ZM202.041 13.8623C202.456 13.1567 173.943 12.9497 173.32 13.6553C172.947 13.9873 173.238 14.4855 174.316 15.3984C175.105 16.1039 175.977 16.56 176.226 16.4355C176.475 16.2695 176.558 16.3111 176.392 16.6016C176.06 17.1409 178.175 18.8418 178.757 18.4697C178.964 18.3452 179.047 18.3867 178.923 18.6357C178.592 19.1759 180.376 20.8765 181.372 21.001C181.829 21.084 182.16 21.333 182.16 21.582C182.16 22.3291 187.349 26.687 187.847 26.3965C188.137 26.2305 188.179 26.3135 188.013 26.5625C187.722 27.0605 190.088 29.0112 190.752 28.8037C190.959 28.7622 191.042 28.8872 190.876 29.0947C190.629 29.5523 193.035 31.5014 193.657 31.2939C193.865 31.2525 193.948 31.377 193.823 31.543C193.491 32.0823 198.551 36.2302 199.094 35.9014C199.301 35.7769 199.384 35.8599 199.26 36.0674C198.888 36.6487 200.463 38.0168 201.086 37.6025C201.376 37.4365 201.501 37.478 201.294 37.7686C200.962 38.3496 202.539 39.2627 203.369 38.9307C204.241 38.5983 204.199 15.6055 203.327 14.4434C202.995 14.0285 202.539 13.8208 202.248 14.0283C201.916 14.1941 201.834 14.1527 202.041 13.8623ZM216.069 13.4893C215.654 13.3232 215.53 13.4058 215.737 13.6963C215.903 13.9868 215.82 14.1943 215.488 14.1943C215.198 14.2358 215.405 14.6094 215.986 15.1074C216.567 15.564 216.982 16.145 216.899 16.3525C216.858 16.5601 217.19 16.5186 217.646 16.2695C218.311 15.9375 218.477 15.9375 218.394 16.3525C218.311 16.6431 218.601 16.8506 218.975 16.8506C219.39 16.8091 219.638 16.9751 219.597 17.2656C219.555 17.5146 219.846 17.6807 220.22 17.6807C220.635 17.6392 220.883 17.8052 220.842 18.0957C220.8 18.3447 221.091 18.5107 221.465 18.5107C221.88 18.4692 222.128 18.5938 222.004 18.7598C221.714 19.2166 224.661 20.9179 225.2 20.5859C225.449 20.4199 225.532 20.5034 225.407 20.7109C225.167 21.0894 233.459 26.6865 235.119 27.2266C235.866 27.4756 245.703 21.0425 245.537 20.4199C245.496 20.1709 245.62 20.0469 245.869 20.2129C246.451 20.5442 249.23 18.3454 248.898 17.8057C248.774 17.5982 248.857 17.5152 249.064 17.6396C249.313 17.8056 250.019 17.4315 250.642 16.8506C251.638 15.9375 251.721 15.73 251.182 15.1904C250.564 14.5313 250.354 14.5267 227.743 13.999L227.233 13.9873C221.465 13.8213 216.444 13.6138 216.069 13.4893ZM43.9531 5.64453C40.3838 5.02197 37.8105 4.89795 37.3955 5.35449C37.2295 5.479 37.1045 10.459 37.1045 16.3525C37.1045 25.8154 37.1875 27.0605 37.7686 27.0605C39.0134 27.0605 44.5735 24.488 44.2852 24.0723C44.1191 23.7817 44.2437 23.7407 44.5342 23.9482C45.158 24.3205 48.3918 22.9523 48.0615 22.4541C47.937 22.2466 48.186 22.2051 48.5596 22.3711C49.0575 22.5371 49.1821 22.4951 48.9746 22.1631C48.8086 21.8311 48.8921 21.748 49.2656 21.9141C49.5986 22.0379 51.217 21.4577 52.835 20.6279C54.495 19.8394 56.0303 19.2578 56.2793 19.4238C56.5281 19.5897 56.6114 19.5483 56.4873 19.2998C56.3628 19.0923 56.9023 18.5938 57.6494 18.1787C58.4372 17.7226 58.9763 17.2248 58.8115 16.9756C58.687 16.7266 58.7695 16.6846 59.0186 16.8506C59.6826 17.2656 62.0898 15.9375 61.7578 15.3564C61.5918 15.0659 61.6333 15.0244 61.9238 15.1904C62.5049 15.5225 64.9536 14.1943 64.6631 13.6963C64.5386 13.5303 64.7051 13.4888 65.0371 13.6133C65.3689 13.7374 65.7422 13.5303 65.9082 13.1572C66.1987 12.4102 64.7046 11.6626 58.1055 9.37988C53.2912 7.71978 48.6014 6.47461 43.9531 5.64453Z" fill="#002F5D"/>
</svg>
