<svg width="152" height="131" viewBox="0 0 152 131" fill="none" xmlns="http://www.w3.org/2000/svg">
<path d="M111 0C118.18 0 124 5.8203 124 13V57.0498L135.588 57.0049L135.601 49.8662C135.627 45.9239 135.613 42.5625 135.571 42.3955C135.57 42.188 137.77 42.0547 140.509 42.0439L145.489 42.0244L145.556 48.374C145.629 56.6749 145.63 56.6753 148.532 56.9854L148.62 56.9951C149.907 57.1561 151.195 57.4418 151.403 57.6484C151.611 57.8572 151.746 60.5535 151.718 63.8311L151.616 69.6006L149.957 69.7314C147.51 69.9071 146.348 70.2021 146.64 70.6572C146.765 70.9058 146.599 70.9484 146.267 70.8252C145.685 70.6205 145.605 71.4517 145.63 77.7588L145.659 84.9805L135.448 84.7715L135.337 77.6748C135.28 73.8152 135.101 70.4124 134.934 70.1641C134.77 69.8832 131.214 69.8502 124 70.0273V118C124 125.18 118.18 131 111 131H54C46.8204 131 41 125.18 41 118V71.2832C40.1076 70.9834 36.9564 70.8887 28.8457 70.8887H16.8506L16.8096 78.0273C16.7681 81.9694 16.7681 85.3307 16.8096 85.498C16.8096 85.7056 14.6094 85.8301 11.8701 85.8301H6.88964L6.84863 79.4805C6.80753 71.1789 6.80648 71.179 3.90527 70.8574L3.81835 70.8477C2.53244 70.6817 1.24664 70.3911 1.03808 70.1836C0.830562 69.9761 0.705562 67.2778 0.747066 63.999L0.872066 58.2305L2.53222 58.1055C4.98064 57.9395 6.14299 57.6489 5.85253 57.1924C5.72806 56.9434 5.89367 56.9019 6.22558 57.0264C6.80663 57.2339 6.88964 56.404 6.88964 50.0957V42.874L11.9951 42.998L17.0996 43.123L17.1826 50.2197C17.2241 54.0796 17.3906 57.4834 17.5566 57.7324C17.7257 58.0226 21.5028 58.0644 29.1777 57.8984C37.7643 57.721 40.0704 57.6316 41 57.1953V13C41 5.82035 46.8204 8.66596e-05 54 0H111Z" fill="#0A388F"/>
</svg>
