<svg width="216" height="428" viewBox="0 0 216 428" fill="none" xmlns="http://www.w3.org/2000/svg">
<path fill-rule="evenodd" clip-rule="evenodd" d="M128.184 6.10352e-05C119.109 1.48893 113.508 8.36609 113.508 18.0792C113.508 19.7098 107.766 44.4535 100.818 73.0255C97.7022 85.8684 94.3018 99.8373 91.2107 112.536L91.2057 112.556C87.4048 128.17 84.0722 141.86 82.3131 149.17C75.7195 176.679 55.868 258.283 45.7295 299.617L38.9232 327.48H36.1582H33.3932V336.13V344.85L26.3033 344.637L19.2135 344.425L9.71309 348.82L0.212696 353.216L0.141796 390.296L0 427.447L42.3973 427.589L84.7945 427.801L84.7977 427.87L168.1 427.447H178.664H189.228L198.728 422.626L208.158 417.875L211.845 398.024L215.531 378.172V361.299L215.602 344.496H205.676C200.217 344.496 195.751 344.212 195.751 343.857L184.69 344.141L171.858 344.354L159.025 344.496L158.6 341.872C158.174 339.32 156.402 325.707 149.738 273.597C148.107 261.332 146.831 250.697 146.831 249.988C146.831 249.066 147.469 248.783 149.525 248.783C154.913 248.783 155.339 248.357 155.339 243.749V239.566H150.943C148.461 239.566 146.122 239.282 145.625 238.999C144.775 238.432 142.577 226.095 142.577 221.912L140.45 207.023V193.978V180.933V147.398V130.737V114.076H156.756H173.063L173.418 112.445C174.127 109.184 179.373 79.0518 179.231 78.91C179.089 78.7682 142.01 75.0815 141.017 75.0815C140.663 75.0815 140.45 63.8086 140.45 49.9835V24.8854L142.364 21.1987C143.711 18.5755 144.278 16.3776 144.278 13.6835C144.349 11.5565 144.491 9.85498 144.704 9.85498L128.184 6.10352e-05ZM120.598 31.6208C120.598 32.3298 119.96 38.6398 119.18 45.6587C116.415 70.544 111.381 119.18 107.837 154.842C106.381 169.941 104.35 190.454 102.775 206.367L102.775 206.375L102.774 206.384L102.767 206.45C102.275 211.426 101.827 215.95 101.456 219.714C99.8959 235.525 96.7055 268.209 94.3658 292.385C92.5687 310.956 90.897 328.021 90.122 335.932L90.1217 335.935C89.8879 338.321 89.7358 339.874 89.6865 340.383L89.2611 344.496H70.1895H51.1178V335.988V327.48H48.5654C46.2967 327.48 46.0131 327.338 46.3676 325.849C47.502 320.816 65.7938 245.592 76.074 203.762C79.7003 188.945 83.6268 172.841 86.8864 159.473L86.9019 159.409L86.9136 159.361L86.9196 159.337C89.5721 148.458 91.7796 139.405 93.0188 134.353C95.7129 123.151 99.825 106.702 102.165 97.8399C104.433 89.0485 108.9 71.6075 112.02 59.1294C115.21 46.6513 118.117 35.0948 118.542 33.3932C119.322 30.4155 120.598 29.352 120.598 31.6208ZM209.221 377.251C209.221 378.101 204.897 402.207 204.684 402.349C204.684 402.42 202.131 402.703 199.154 402.987L193.624 403.483V389.941V376.4H201.422C207.023 376.4 209.221 376.613 209.221 377.251Z" fill="#2B75FF"/>
</svg>
