<svg width="216" height="428" viewBox="0 0 216 428" fill="none" xmlns="http://www.w3.org/2000/svg">
<path fill-rule="evenodd" clip-rule="evenodd" d="M113.508 18.0791C113.508 8.36603 119.109 1.48887 128.184 0L144.704 9.85492C144.491 9.85492 144.349 11.5565 144.278 13.6834C144.278 16.3775 143.711 18.5754 142.364 21.1987L140.45 24.8854V49.9834C140.45 63.8086 140.663 75.0815 141.017 75.0815L140.45 114.076V130.737V147.398V180.933V193.978V207.023L142.577 221.912C142.577 226.095 144.775 238.431 145.625 238.999C146.122 239.282 148.461 239.566 150.943 239.566H155.339V243.749C155.339 248.357 154.913 248.783 149.525 248.783C147.469 248.783 146.831 249.066 146.831 249.988C146.831 250.697 182.68 249.988 182.68 249.988V284.37H146.831C146.831 284.37 158.45 340.974 158.6 341.872L159.025 344.496L171.858 344.354L184.69 344.141L195.751 343.857C195.751 344.212 200.217 344.496 205.676 344.496H215.602L215.531 361.298V378.172L211.845 398.024L208.158 417.875L198.728 422.626L189.228 427.447H178.664H168.1L84.7977 427.87L84.7945 427.801L42.3973 427.588L0 427.447L0.141796 390.296L0.212696 353.216L9.71309 348.82L19.2135 344.425L26.3033 344.637L33.3932 344.85V336.13V327.48H36.1582H38.9232L45.7295 299.617C55.868 258.283 75.7195 176.679 82.3131 149.17C84.0722 141.86 87.4048 128.17 91.2057 112.556L91.2107 112.536C94.3018 99.8373 97.7022 85.8683 100.818 73.0254C107.766 44.4534 113.508 19.7098 113.508 18.0791ZM119.18 45.6586C119.96 38.6397 120.598 32.3297 120.598 31.6207C120.598 29.352 119.322 30.4155 118.542 33.3932C118.117 35.0947 115.21 46.6512 112.02 59.1293C108.9 71.6074 104.433 89.0485 102.165 97.8399C99.825 106.702 95.7129 123.151 93.0188 134.353C91.7796 139.405 89.5721 148.458 86.9196 159.337L86.9136 159.361L86.9019 159.409L86.8864 159.473C83.6268 172.841 79.7003 188.945 76.074 203.762C65.7938 245.592 47.502 320.815 46.3676 325.849C46.0131 327.338 46.2967 327.48 48.5654 327.48H51.1178V335.988V344.496H70.1895H89.2611L89.6865 340.383C89.7358 339.874 89.8879 338.321 90.1217 335.935L90.122 335.932C90.897 328.021 92.5687 310.956 94.3658 292.385C96.7055 268.209 99.8959 235.525 101.456 219.714C101.827 215.95 102.275 211.426 102.767 206.45L102.774 206.384L102.775 206.375L102.775 206.367C104.35 190.454 106.381 169.941 107.837 154.842C111.381 119.18 116.415 70.5439 119.18 45.6586ZM204.684 402.349C204.897 402.207 209.221 378.101 209.221 377.251C209.221 376.613 207.023 376.4 201.422 376.4H193.624V389.941V403.483L199.154 402.987C202.131 402.703 204.684 402.42 204.684 402.349Z" fill="#2B75FF"/>
</svg>
