<svg width="339" height="89" viewBox="0 0 339 89" fill="none" xmlns="http://www.w3.org/2000/svg">
<path d="M54.415 14C54.502 14.2899 56.4728 14.418 62.7754 14.4688C65.4945 14.4906 69.0205 14.498 73.5488 14.498C96.6661 14.4565 98.4513 14.7061 113.891 19.4375L120.655 21.5537L158.922 21.5957C193.702 21.6787 247.45 22.2183 302.94 23.0068C318.961 23.2144 324.647 23.4629 326.349 23.8779C327.552 24.21 328.756 24.3345 329.005 24.21C329.295 24.0025 329.336 24.127 329.129 24.459C328.88 24.8738 328.964 24.9574 329.503 24.75C329.918 24.584 330.125 24.625 329.959 24.874C329.711 25.2892 331.951 26.6171 332.408 26.3271C332.533 26.2026 332.574 26.2441 332.449 26.4102C332.327 26.5366 333.031 27.4905 333.943 28.4854C334.856 29.5229 336.226 31.5562 336.932 33.0918C338.177 35.7065 338.26 36.1636 338.26 40.4385C338.26 44.9207 337.554 48.3657 336.766 47.9092C336.558 47.7433 336.6 48.1583 336.849 48.8223C337.056 49.4446 337.14 49.8593 336.974 49.6934C336.849 49.5273 336.019 50.2744 335.147 51.3535C334.317 52.4741 332.989 53.8857 332.2 54.5498C331.412 55.1723 330.831 55.8775 330.914 56.085C330.956 56.2925 330.873 56.3755 330.665 56.251C330.25 56.002 327.013 57.123 326.1 57.7871L321.99 58.3682C321.658 57.7871 316.761 57.9941 268.741 60.5674C247.865 61.688 210.055 64.0127 183.866 65.7559C178.844 66.0879 169.049 66.5439 162.076 66.793C143.898 67.4155 128.75 68.3706 125.097 69.0762C123.354 69.4082 117.584 70.7779 112.23 72.1475C98.3267 75.7168 96.334 75.9238 73.6729 75.9238C56.9053 75.9238 54.5811 76.0068 54 76.5879L54.415 14ZM92.9307 49.6104C91.229 48.9463 91.063 49.7769 91.1875 60.6094L91.3125 70.7363L95.0479 70.8604C100.111 71.0263 102.892 70.4867 111.856 67.54C119.452 65.0498 121.402 64.2612 121.402 63.4727C121.402 62.8502 114.764 59.6558 114.057 59.9033C113.683 60.0693 113.6 59.9863 113.766 59.6543C113.973 59.3223 113.849 59.2812 113.351 59.4473C112.977 59.6132 112.728 59.5713 112.853 59.4053C113.185 58.8657 105.838 55.4214 105.216 55.7949C104.884 56.0023 104.76 55.9608 104.926 55.7119C105.258 55.1724 100.401 52.9307 99.7373 53.3457C99.4883 53.5117 99.4059 53.4705 99.5303 53.2217C99.8623 52.6821 94.2588 49.9844 93.5947 50.3994C93.2629 50.6067 93.1388 50.5653 93.3047 50.3164C93.4707 50.0674 93.3042 49.7349 92.9307 49.6104ZM132.733 31.0166C131.239 29.481 130.534 29.1494 129.994 29.7305C129.828 29.855 129.703 36.8691 129.703 45.2529C129.703 59.2808 129.745 60.5674 130.45 61.3975L131.197 62.3105L141.947 61.8545C147.882 61.6055 154.647 61.3975 156.93 61.3975C162.574 61.3975 163.031 60.9407 160.209 58.0771C159.131 56.9573 158.052 56.0868 157.885 56.127C157.719 56.1685 157.594 56.0435 157.594 55.8359C157.594 55.6699 154.398 52.2665 150.497 48.3652C146.555 44.423 143.484 41.1035 143.607 40.9365C143.732 40.7705 143.69 40.7291 143.524 40.8535C143.068 41.1855 140.08 38.0723 140.37 37.5742C140.494 37.3255 140.494 37.2425 140.287 37.4082C140.121 37.5742 138.751 36.6196 137.257 35.25C135.804 33.8804 134.352 32.8848 134.103 33.0508C133.854 33.1752 133.771 33.1337 133.979 32.9678C134.145 32.7603 133.605 31.8881 132.733 31.0166ZM175.357 27.9873C174.486 26.9497 173.822 27.2817 173.531 28.9004C173.407 29.7741 173.282 37.0361 173.282 45.0449C173.282 56.915 173.407 59.7378 173.863 60.1113C174.534 60.6505 203.163 59.9037 204.742 59.2812C205.987 58.7832 205.904 58.036 204.41 56.625C203.746 56.0024 203.332 55.2549 203.456 55.0059C203.58 54.757 203.539 54.7159 203.373 54.8818C202.834 55.3383 189.971 42.3928 190.092 41.5176C190.133 41.1441 190.092 41.1022 190.009 41.3926C189.884 41.6831 188.016 40.2307 185.443 37.7822C183.038 35.5011 180.964 33.676 180.795 33.7148C180.67 33.7563 180.546 33.6729 180.546 33.5068C180.546 33.3408 179.549 32.2206 178.346 30.9756C177.142 29.7721 176.313 28.61 176.479 28.4023C176.686 28.2364 176.603 28.1948 176.354 28.3193C176.063 28.4851 175.648 28.3191 175.357 27.9873ZM124.516 30.8096C123.395 30.7266 122.606 31.0586 122.855 31.5566C123.021 31.7636 122.855 31.8049 122.523 31.6807C121.652 31.3486 106.751 38.9023 107.125 39.4834C107.291 39.7739 107.25 39.8154 106.959 39.6494C106.295 39.2344 103.058 40.9775 103.39 41.5586C103.556 41.8491 103.514 41.8906 103.224 41.7246C102.518 41.3096 97.6626 43.8833 98.0361 44.5059C98.2014 44.7956 97.9527 44.7125 97.5381 44.3809C96.8325 43.7998 96.791 43.8418 97.04 44.5059C97.2057 44.9617 97.1639 45.1692 96.874 45.0039C96.376 44.6719 95.1719 45.585 95.5039 46.083C95.8786 46.7058 99.5304 48.1582 100.111 47.9092C100.443 47.8263 100.609 47.8672 100.484 48.0332C100.152 48.5727 105.049 50.7722 105.631 50.3994C106.004 50.1504 106.088 50.2331 105.839 50.6064C105.59 51.0214 105.673 51.1049 106.212 50.8975C106.585 50.7314 106.834 50.7729 106.71 50.9805C106.381 51.4795 112.978 54.4662 113.559 54.0928C113.89 53.8856 113.932 53.9686 113.725 54.3418C113.476 54.7568 113.558 54.8403 114.098 54.6328C114.554 54.4253 114.72 54.5078 114.513 54.8398C114.305 55.1718 114.43 55.2138 114.928 55.0479C115.301 54.8818 115.55 54.9229 115.426 55.0889C115.177 55.5039 123.644 59.7373 124.723 59.7373C125.553 59.7373 125.553 59.4883 125.47 45.2939L125.469 45.1445C125.346 31.2247 125.342 30.8924 124.516 30.8096ZM197.064 26.9492C185.485 26.9492 181.542 27.0737 181.334 27.4473C180.96 28.0283 193.826 40.6864 194.615 40.5215C194.864 40.48 195.031 40.646 194.989 40.9365C194.869 41.5214 205.196 51.5166 205.655 51.2295C205.821 51.105 206.195 51.3125 206.485 51.6445C206.776 51.9764 206.859 52.2666 206.651 52.2666C206.485 52.2666 207.108 53.0557 208.062 54.0518C209.017 55.0478 209.723 55.961 209.599 56.127C209.474 56.2928 209.515 56.3341 209.64 56.21C209.806 56.127 210.428 56.3755 211.051 56.832C211.673 57.2886 212.296 57.4961 212.462 57.3301C212.628 57.1641 212.711 57.3301 212.628 57.6621C212.545 58.0356 212.794 58.2432 213.209 58.2432C213.624 58.2017 213.832 58.3267 213.707 58.5342C213.583 58.7415 213.666 58.9072 213.915 58.9072C215.201 58.9068 215.326 57.0379 215.035 43.9658C214.869 36.786 214.662 30.27 214.496 29.5225C214.372 28.7757 213.873 27.9046 213.417 27.5723C212.67 27.0327 210.013 26.9492 197.064 26.9492ZM223.253 29.6475C220.68 27.4478 219.809 27.0327 219.228 27.6553C219.062 27.7798 218.937 34.5034 218.937 42.5967C218.937 56.915 218.937 57.2476 219.809 58.1191C220.555 58.8658 221.012 58.9487 222.838 58.7412C224 58.6167 228.69 58.3262 233.255 58.0771L234.133 58.0332C250.651 57.2055 250.861 57.1947 251.351 56.583C251.724 56.1265 251.683 55.7944 251.102 55.1719C250.728 54.7569 250.23 54.4253 250.064 54.4668C249.899 54.5082 249.691 54.342 249.649 54.1348C249.649 53.8857 249.234 53.3457 248.777 52.8477C248.363 52.3914 248.114 51.8518 248.279 51.6855C248.487 51.5195 248.404 51.437 248.196 51.4785C247.947 51.5611 247.366 51.3948 246.91 51.1045C246.412 50.8555 245.872 50.7725 245.706 50.9385C245.499 51.1041 245.499 51.0214 245.623 50.7314C245.997 50.1504 243.05 47.6187 242.469 47.9922C242.22 48.1163 242.179 48.033 242.345 47.7842C242.677 47.2446 239.314 44.2983 238.733 44.6719C238.485 44.7959 238.443 44.7126 238.567 44.4639C238.899 43.9658 233.629 38.9858 232.882 39.1104C232.633 39.1518 232.467 38.9855 232.508 38.6953C232.632 38.0728 226.946 32.7188 226.282 32.8848C226.034 32.9259 225.826 32.7597 225.867 32.4697C225.95 32.1792 224.747 30.934 223.253 29.6475ZM152.779 26.9492C138.585 26.9492 136.8 27.0322 136.593 27.6133C136.261 28.4434 136.676 29.1074 137.257 28.7754C137.506 28.6094 137.589 28.6924 137.423 28.9414C137.298 29.1904 137.34 29.4814 137.589 29.6475C137.838 29.8135 137.88 30.1456 137.714 30.3945C137.506 30.7264 137.631 30.7263 138.087 30.3945C138.585 29.938 138.834 30.021 139.498 30.8096L140.287 31.7227L139.249 30.8926C137.506 29.5229 158.341 50.4824 161.786 53.5537C163.571 55.1306 165.189 56.3345 165.438 56.21C165.646 56.044 165.77 56.1685 165.729 56.459C165.646 56.7497 166.268 57.4139 167.057 57.9531C169.547 59.6961 169.588 59.5293 169.298 42.7207C169.173 34.6274 169.007 27.7378 168.883 27.4473C168.758 27.0737 165.189 26.9492 152.779 26.9492ZM265.089 29.9795C262.931 28.2778 262.723 28.1528 262.184 28.6924C261.437 29.4394 261.478 55.3315 262.225 55.9189C262.64 56.2925 263.429 56.0848 265.379 55.1719C266.79 54.5078 267.869 53.7607 267.703 53.5117C267.579 53.3043 267.704 53.2217 267.994 53.3047C268.783 53.6362 273.39 51.063 273.058 50.5234C272.892 50.2329 272.975 50.1914 273.224 50.3574C273.888 50.7724 277.125 49.0293 276.793 48.4482C276.627 48.1577 276.668 48.1162 276.959 48.2822C277.582 48.6557 279.988 47.2867 279.656 46.7471C279.532 46.498 279.615 46.4561 279.864 46.6221C280.487 46.9955 283.681 44.9627 283.683 44.1738C283.683 43.3438 281.98 41.8076 281.316 42.0566C281.026 42.1809 280.819 42.0979 280.901 41.8906C281.026 41.3511 273.307 36.0387 272.809 36.3291C272.56 36.4951 272.476 36.4535 272.601 36.1631C272.974 35.6235 268.866 32.6353 268.243 33.0088C267.953 33.1748 267.911 33.1333 268.077 32.8428C268.409 32.3032 266.915 31.3901 266.458 31.8467C266.251 32.0124 266.251 31.9294 266.375 31.6807C266.541 31.4317 265.96 30.685 265.089 29.9795ZM288.829 47.3691C289.327 46.5806 288.165 46.7886 286.463 47.8262C285.592 48.3656 285.052 48.9468 285.218 49.1543C285.384 49.3203 285.301 49.3613 285.052 49.1953C284.469 48.8645 279.864 51.3956 280.196 51.8936C280.279 52.0593 280.03 52.1421 279.615 52.1006C279.242 52.1006 278.951 52.2666 278.992 52.5156C279.034 52.8061 278.785 52.9722 278.37 52.9307C277.997 52.9307 277.706 53.1382 277.789 53.4287C277.831 53.7607 277.748 53.8852 277.54 53.7607C277.333 53.6362 276.751 53.8438 276.253 54.1758C275.133 54.9642 275.714 55.9602 277.166 55.7529C277.664 55.6699 281.441 55.4209 285.55 55.1719L286.351 55.124C299.421 54.3417 299.703 54.3247 299.744 53.4707C299.827 52.5991 298.458 51.6441 297.711 52.1006C297.42 52.3081 297.379 52.2249 297.586 51.8516C297.835 51.4365 297.752 51.354 297.213 51.5615C296.756 51.7689 296.59 51.6855 296.798 51.3535C297.005 51.0215 296.881 50.9805 296.383 51.1465C296.009 51.3124 295.76 51.2705 295.885 51.1045C296.175 50.6064 289.576 47.2032 288.995 47.5352C288.705 47.7012 288.663 47.6597 288.829 47.3691ZM311.697 32.8428C312.61 30.6016 312.112 29.855 310.535 31.1416C309.913 31.5981 309.54 32.1788 309.664 32.4277C309.83 32.7182 309.747 32.7598 309.498 32.5938C309.249 32.4277 307.92 33.1753 306.551 34.2129C305.098 35.3332 303.811 35.9971 303.562 35.8311C303.231 35.6653 303.19 35.7067 303.355 35.9971C303.521 36.2461 303.147 36.7441 302.566 37.1592C302.027 37.5327 301.653 38.0313 301.819 38.2803C301.944 38.5291 301.861 38.5703 301.612 38.4043C301.114 38.1138 293.229 43.3438 293.229 44.0078C293.229 44.3809 293.893 44.5466 294.681 44.3809C294.93 44.3394 294.972 44.4639 294.806 44.6299C294.349 45.0449 296.051 46.1655 296.632 45.792C296.922 45.626 296.964 45.6675 296.798 45.958C296.466 46.5391 298.043 47.4521 298.707 47.0371C298.998 46.8296 299.039 46.9126 298.831 47.2861C298.582 47.701 298.666 47.7846 299.205 47.5771C299.579 47.4111 299.828 47.4522 299.703 47.6182C299.413 48.1162 301.861 49.4443 302.442 49.1123C302.691 48.9463 302.774 48.9878 302.608 49.2783C302.235 49.8594 309.747 53.5947 311.407 53.6777C312.113 53.7192 312.569 53.8438 312.444 54.0098C312.361 54.2171 312.445 54.3416 312.693 54.3418C313.648 54.3418 313.565 53.3457 312.361 51.5195C310.909 49.2369 309.83 45.4603 309.83 42.6797C309.83 40.148 310.784 35.1256 311.697 32.8428ZM256.041 27.8623C256.456 27.1567 227.943 26.9497 227.32 27.6553C226.947 27.9873 227.238 28.4855 228.316 29.3984C229.105 30.1039 229.977 30.56 230.226 30.4355C230.475 30.2695 230.558 30.3111 230.392 30.6016C230.06 31.1409 232.175 32.8418 232.757 32.4697C232.964 32.3452 233.047 32.3867 232.923 32.6357C232.592 33.1759 234.376 34.8765 235.372 35.001C235.829 35.084 236.16 35.333 236.16 35.582C236.16 36.3291 241.349 40.687 241.847 40.3965C242.137 40.2305 242.179 40.3135 242.013 40.5625C241.722 41.0605 244.088 43.0112 244.752 42.8037C244.959 42.7622 245.042 42.8872 244.876 43.0947C244.629 43.5523 247.035 45.5014 247.657 45.2939C247.865 45.2525 247.948 45.377 247.823 45.543C247.491 46.0823 252.551 50.2302 253.094 49.9014C253.301 49.7769 253.384 49.8599 253.26 50.0674C252.888 50.6487 254.463 52.0168 255.086 51.6025C255.376 51.4365 255.501 51.478 255.294 51.7686C254.962 52.3496 256.539 53.2627 257.369 52.9307C258.241 52.5983 258.199 29.6055 257.327 28.4434C256.995 28.0285 256.539 27.8208 256.248 28.0283C255.916 28.1941 255.834 28.1527 256.041 27.8623ZM270.069 27.4893C269.654 27.3232 269.53 27.4058 269.737 27.6963C269.903 27.9868 269.82 28.1943 269.488 28.1943C269.198 28.2358 269.405 28.6094 269.986 29.1074C270.567 29.564 270.982 30.145 270.899 30.3525C270.858 30.5601 271.19 30.5186 271.646 30.2695C272.311 29.9375 272.477 29.9375 272.394 30.3525C272.311 30.6431 272.601 30.8506 272.975 30.8506C273.39 30.8091 273.638 30.9751 273.597 31.2656C273.555 31.5146 273.846 31.6807 274.22 31.6807C274.635 31.6392 274.883 31.8052 274.842 32.0957C274.8 32.3447 275.091 32.5107 275.465 32.5107C275.88 32.4692 276.128 32.5938 276.004 32.7598C275.714 33.2166 278.661 34.9179 279.2 34.5859C279.449 34.4199 279.532 34.5034 279.407 34.7109C279.167 35.0894 287.459 40.6865 289.119 41.2266C289.866 41.4756 299.703 35.0425 299.537 34.4199C299.496 34.1709 299.62 34.0469 299.869 34.2129C300.451 34.5442 303.23 32.3454 302.898 31.8057C302.774 31.5982 302.857 31.5152 303.064 31.6396C303.313 31.8056 304.019 31.4315 304.642 30.8506C305.638 29.9375 305.721 29.73 305.182 29.1904C304.564 28.5313 304.354 28.5267 281.743 27.999L281.233 27.9873C275.465 27.8213 270.444 27.6138 270.069 27.4893ZM97.9531 19.6445C94.3838 19.022 91.8105 18.8979 91.3955 19.3545C91.2295 19.479 91.1045 24.459 91.1045 30.3525C91.1045 39.8154 91.1875 41.0605 91.7686 41.0605C93.0134 41.0605 98.5735 38.488 98.2852 38.0723C98.1191 37.7817 98.2437 37.7407 98.5342 37.9482C99.158 38.3205 102.392 36.9523 102.062 36.4541C101.937 36.2466 102.186 36.2051 102.56 36.3711C103.057 36.5371 103.182 36.4951 102.975 36.1631C102.809 35.8311 102.892 35.748 103.266 35.9141C103.599 36.0379 105.217 35.4577 106.835 34.6279C108.495 33.8394 110.03 33.2578 110.279 33.4238C110.528 33.5897 110.611 33.5483 110.487 33.2998C110.363 33.0923 110.902 32.5938 111.649 32.1787C112.437 31.7226 112.976 31.2248 112.812 30.9756C112.687 30.7266 112.77 30.6846 113.019 30.8506C113.683 31.2656 116.09 29.9375 115.758 29.3564C115.592 29.0659 115.633 29.0244 115.924 29.1904C116.505 29.5225 118.954 28.1943 118.663 27.6963C118.539 27.5303 118.705 27.4888 119.037 27.6133C119.369 27.7374 119.742 27.5303 119.908 27.1572C120.199 26.4102 118.705 25.6626 112.105 23.3799C107.291 21.7198 102.601 20.4746 97.9531 19.6445Z" fill="#002F5D"/>
<path d="M43 0C50.1797 2.57703e-07 56 5.8203 56 13V35C61.5228 35 66 39.4772 66 45C66 50.5228 61.5228 55 56 55V76C56 83.1797 50.1797 89 43 89H13C5.8203 89 0 83.1797 0 76V13C1.19191e-06 5.8203 5.8203 0 13 0H43Z" fill="#2B75FF"/>
</svg>
